<?xml version="1.0" encoding="UTF-8"?>
<svg id="Layer_1" data-name="Layer 1" xmlns="http://www.w3.org/2000/svg" xmlns:xlink="http://www.w3.org/1999/xlink" viewBox="0 0 1024 1024">
  <defs>
    <style>
      .cls-1 {
        fill: url(#linear-gradient);
      }

      .cls-1, .cls-2, .cls-3, .cls-4, .cls-5, .cls-6, .cls-7, .cls-8, .cls-9, .cls-10, .cls-11, .cls-12, .cls-13, .cls-14, .cls-15, .cls-16, .cls-17, .cls-18, .cls-19, .cls-20, .cls-21, .cls-22, .cls-23, .cls-24, .cls-25, .cls-26, .cls-27, .cls-28, .cls-29 {
        stroke-width: 0px;
      }

      .cls-2 {
        fill: url(#linear-gradient-11);
      }

      .cls-3 {
        fill: url(#linear-gradient-12);
      }

      .cls-4 {
        fill: url(#linear-gradient-13);
      }

      .cls-5 {
        fill: url(#linear-gradient-10);
      }

      .cls-6 {
        fill: url(#linear-gradient-17);
      }

      .cls-7 {
        fill: url(#linear-gradient-16);
      }

      .cls-8 {
        fill: url(#linear-gradient-19);
      }

      .cls-9 {
        fill: url(#linear-gradient-15);
      }

      .cls-10 {
        fill: url(#linear-gradient-18);
      }

      .cls-11 {
        fill: url(#linear-gradient-14);
      }

      .cls-12 {
        fill: url(#linear-gradient-20);
      }

      .cls-13 {
        fill-rule: evenodd;
      }

      .cls-13, .cls-25 {
        fill: #156a36;
      }

      .cls-14 {
        fill: url(#linear-gradient-4);
      }

      .cls-15 {
        fill: url(#linear-gradient-2);
      }

      .cls-16 {
        fill: url(#linear-gradient-3);
      }

      .cls-17 {
        fill: url(#linear-gradient-8);
      }

      .cls-18 {
        fill: url(#linear-gradient-9);
      }

      .cls-19 {
        fill: url(#linear-gradient-7);
      }

      .cls-20 {
        fill: url(#linear-gradient-5);
      }

      .cls-21 {
        fill: url(#linear-gradient-6);
      }

      .cls-22 {
        fill: #23295e;
      }

      .cls-23 {
        fill: #243f8b;
      }

      .cls-24 {
        fill: #24408b;
      }

      .cls-26 {
        fill: #d5b76b;
      }

      .cls-27 {
        fill: #a77e2c;
      }

      .cls-28 {
        fill: #abbcd6;
      }

      .cls-29 {
        fill: #fff;
      }
    </style>
    <linearGradient id="linear-gradient" x1="127" y1="818.6" x2="279.44" y2="554.55" gradientUnits="userSpaceOnUse">
      <stop offset="0" stop-color="#bcbec0"/>
      <stop offset=".16" stop-color="#939598"/>
      <stop offset=".36" stop-color="#e6e7e8"/>
      <stop offset=".36" stop-color="#e4e5e6"/>
      <stop offset=".42" stop-color="#b9bbbc"/>
      <stop offset=".46" stop-color="#a9abad"/>
      <stop offset=".62" stop-color="#e6e7e8"/>
      <stop offset=".72" stop-color="#e6e7e8"/>
      <stop offset=".86" stop-color="#babcbe"/>
      <stop offset=".94" stop-color="#a5a7aa"/>
      <stop offset="1" stop-color="#e6e7e8"/>
    </linearGradient>
    <linearGradient id="linear-gradient-2" x1="129.59" y1="814.07" x2="276.83" y2="559.05" gradientUnits="userSpaceOnUse">
      <stop offset="0" stop-color="#acadaf"/>
      <stop offset="0" stop-color="#b1b2b4"/>
      <stop offset=".03" stop-color="#c4c5c6"/>
      <stop offset=".05" stop-color="#d0d1d1"/>
      <stop offset=".08" stop-color="#d4d5d5"/>
      <stop offset=".13" stop-color="#e1e1e2"/>
      <stop offset=".21" stop-color="#edeced"/>
      <stop offset=".28" stop-color="#f1f0f1"/>
      <stop offset=".4" stop-color="#e8e7e8"/>
      <stop offset=".58" stop-color="#d0d1d2"/>
      <stop offset=".69" stop-color="#c0c1c3"/>
      <stop offset=".84" stop-color="#dedddf"/>
      <stop offset=".95" stop-color="#f1f0f1"/>
      <stop offset="1" stop-color="#969799"/>
    </linearGradient>
    <linearGradient id="linear-gradient-3" x1="102.33" y1="713.53" x2="318.97" y2="713.53" xlink:href="#linear-gradient"/>
    <linearGradient id="linear-gradient-4" x1="136.84" y1="801.73" x2="269.75" y2="571.53" gradientUnits="userSpaceOnUse">
      <stop offset="0" stop-color="#969799"/>
      <stop offset=".05" stop-color="#f1f0f1"/>
      <stop offset=".16" stop-color="#dedddf"/>
      <stop offset=".31" stop-color="#c0c1c3"/>
      <stop offset=".42" stop-color="#d0d1d2"/>
      <stop offset=".6" stop-color="#e8e7e8"/>
      <stop offset=".72" stop-color="#f1f0f1"/>
      <stop offset=".79" stop-color="#edeced"/>
      <stop offset=".87" stop-color="#e1e1e2"/>
      <stop offset=".92" stop-color="#d4d5d5"/>
      <stop offset=".95" stop-color="#d0d1d1"/>
      <stop offset=".97" stop-color="#c4c5c6"/>
      <stop offset=".99" stop-color="#b1b2b4"/>
      <stop offset="1" stop-color="#acadaf"/>
    </linearGradient>
    <linearGradient id="linear-gradient-5" x1="138.28" y1="799.56" x2="268.58" y2="573.88" gradientUnits="userSpaceOnUse">
      <stop offset="0" stop-color="#acadaf"/>
      <stop offset="0" stop-color="#b1b2b4"/>
      <stop offset=".03" stop-color="#c4c5c6"/>
      <stop offset=".05" stop-color="#d0d1d1"/>
      <stop offset=".08" stop-color="#d4d5d5"/>
      <stop offset=".13" stop-color="#e1e1e2"/>
      <stop offset=".21" stop-color="#edeced"/>
      <stop offset=".28" stop-color="#f1f0f1"/>
      <stop offset=".4" stop-color="#e8e7e8"/>
      <stop offset=".58" stop-color="#d0d1d2"/>
      <stop offset=".69" stop-color="#c0c1c3"/>
      <stop offset=".83" stop-color="#dedddf"/>
      <stop offset=".93" stop-color="#f1f0f1"/>
      <stop offset="1" stop-color="#cfcecf"/>
    </linearGradient>
    <linearGradient id="linear-gradient-6" x1="171.35" y1="811.54" x2="294.92" y2="597.5" gradientUnits="userSpaceOnUse">
      <stop offset="0" stop-color="#e6e7e8"/>
      <stop offset=".06" stop-color="#a5a7aa"/>
      <stop offset=".14" stop-color="#babcbe"/>
      <stop offset=".28" stop-color="#e6e7e8"/>
      <stop offset=".38" stop-color="#e6e7e8"/>
      <stop offset=".54" stop-color="#a9abad"/>
      <stop offset=".58" stop-color="#b9bbbc"/>
      <stop offset=".64" stop-color="#e4e5e6"/>
      <stop offset=".64" stop-color="#e6e7e8"/>
      <stop offset=".84" stop-color="#939598"/>
      <stop offset="1" stop-color="#bcbec0"/>
    </linearGradient>
    <linearGradient id="linear-gradient-7" x1="126.25" y1="687.33" x2="157.41" y2="687.33" gradientUnits="userSpaceOnUse">
      <stop offset="0" stop-color="#fee668"/>
      <stop offset=".27" stop-color="#fed857"/>
      <stop offset=".28" stop-color="#ffd857"/>
      <stop offset=".64" stop-color="#c2882b"/>
      <stop offset="1" stop-color="#dda827"/>
    </linearGradient>
    <linearGradient id="linear-gradient-8" x1="126.25" y1="687.33" x2="157.41" y2="687.33" gradientUnits="userSpaceOnUse">
      <stop offset="0" stop-color="#dda827"/>
      <stop offset=".36" stop-color="#c2882b"/>
      <stop offset=".72" stop-color="#ffd857"/>
      <stop offset=".73" stop-color="#fed857"/>
      <stop offset="1" stop-color="#fee668"/>
    </linearGradient>
    <linearGradient id="linear-gradient-9" x1="264.77" x2="295.93" xlink:href="#linear-gradient-7"/>
    <linearGradient id="linear-gradient-10" x1="264.77" x2="295.93" xlink:href="#linear-gradient-8"/>
    <linearGradient id="linear-gradient-11" x1="200.14" y1="717.37" x2="222.47" y2="717.37" xlink:href="#linear-gradient-7"/>
    <linearGradient id="linear-gradient-12" x1="200.14" y1="717.37" x2="222.47" y2="717.37" xlink:href="#linear-gradient-8"/>
    <linearGradient id="linear-gradient-13" x1="177.31" y1="713.24" x2="193.45" y2="713.24" xlink:href="#linear-gradient-7"/>
    <linearGradient id="linear-gradient-14" x1="177.31" y1="713.24" x2="193.45" y2="713.24" xlink:href="#linear-gradient-8"/>
    <linearGradient id="linear-gradient-15" x1="159.46" y1="709.86" x2="170.32" y2="709.86" xlink:href="#linear-gradient-7"/>
    <linearGradient id="linear-gradient-16" x1="159.46" y1="709.86" x2="170.32" y2="709.86" xlink:href="#linear-gradient-8"/>
    <linearGradient id="linear-gradient-17" x1="-1355.62" y1="713.67" x2="-1339.47" y2="713.67" gradientTransform="translate(-1110.79) rotate(-180) scale(1 -1)" xlink:href="#linear-gradient-7"/>
    <linearGradient id="linear-gradient-18" x1="-1355.62" y1="713.67" x2="-1339.47" y2="713.67" gradientTransform="translate(-1110.79) rotate(-180) scale(1 -1)" xlink:href="#linear-gradient-8"/>
    <linearGradient id="linear-gradient-19" x1="-1373.46" y1="710.29" x2="-1362.6" y2="710.29" gradientTransform="translate(-1110.79) rotate(-180) scale(1 -1)" xlink:href="#linear-gradient-7"/>
    <linearGradient id="linear-gradient-20" x1="-1373.46" y1="710.29" x2="-1362.6" y2="710.29" gradientTransform="translate(-1110.79) rotate(-180) scale(1 -1)" xlink:href="#linear-gradient-8"/>
  </defs>
  <g>
    <path class="cls-1" d="m162.22,834.5c34.98,27,42.63,29.2,48.43,29.2s13.46-2.2,48.43-29.2c34.9-26.94,58.65-56.29,63.3-70.21.42-1.24,3.1-12.78,3.1-18.62v-150.6c0-11.62-3.45-15.62-11.7-20.7-9.05-5.57-71.82-11-103.12-11s-94.08,5.44-103.13,11c-8.25,5.08-11.7,9.08-11.7,20.7v150.6c0,5.83,2.68,17.38,3.09,18.61,4.64,13.93,28.41,43.27,63.3,70.22Z"/>
    <path class="cls-15" d="m210.65,858.49c-4.27,0-11.64-2.17-45.25-28.11-36.19-27.94-57.77-56.43-61.54-67.74-.44-1.42-2.83-12.02-2.83-16.96v-150.6c0-9.72,2.39-12.06,9.23-16.26,6.99-4.3,65.17-10.23,100.39-10.23s93.4,5.93,100.39,10.23c6.84,4.21,9.23,6.54,9.23,16.26v150.6c0,4.95-2.4,15.55-2.84,17.01-3.75,11.27-25.33,39.76-61.52,67.7-33.61,25.94-40.98,28.11-45.25,28.11Z"/>
    <path class="cls-16" d="m210.65,857.18c-4.35,0-12.75-3.37-44.46-27.84-35.97-27.77-57.38-55.97-61.1-67.12-.41-1.34-2.76-11.84-2.76-16.55v-150.6c0-9.38,2.21-11.22,8.6-15.16,6.2-3.81,62.91-10.04,99.71-10.04s93.52,6.22,99.71,10.04c6.4,3.94,8.61,5.77,8.61,15.16v150.6c0,4.72-2.36,15.25-2.79,16.62-3.7,11.1-25.11,39.28-61.08,67.05-31.7,24.46-40.1,27.84-44.46,27.84Z"/>
    <path class="cls-14" d="m209.57,843.55c-3.33-1.51-12.35-6.71-35.42-24.52-35.5-27.41-53.7-53.03-56.55-60.51l-.05-.14-.04-.15c-.63-2.48-2.12-9.99-2.15-12.54v-150.62c0-.47,0-.87.02-1.21l.04-1.37,1.46-.94.55-.23c9.3-2.77,58.32-8.43,93.22-8.43s83.93,5.65,93.22,8.43l.35.1,1.46.93.24,1.49c.01.35.02.75.02,1.22v150.6c-.03,2.61-1.54,10.14-2.17,12.63l-.04.14-.05.14c-2.83,7.45-21,33.02-56.54,60.46-23.07,17.81-32.09,23-35.42,24.51l-1.08.49-1.08-.49Z"/>
    <path class="cls-20" d="m210.65,841.18c-3.21-1.46-12.02-6.55-34.91-24.21-35.84-27.67-53.31-53.07-55.71-59.38-.69-2.77-2.05-9.85-2.07-11.93v-150.59c0-.43,0-.81.02-1.13.07-.04.13-.08.2-.12,9.17-2.74,57.55-8.32,92.48-8.32s83.31,5.58,92.47,8.32c.07.04.14.08.2.12,0,.32.02.69.02,1.13v150.6c-.02,2.1-1.39,9.23-2.09,11.99-2.38,6.27-19.83,31.63-55.69,59.32-22.88,17.66-31.7,22.75-34.9,24.2Z"/>
    <path class="cls-21" d="m124.12,745.59c.03,1.28,1.07,7.09,1.79,10.11,2.59,6.08,19.9,30.38,53.6,56.39,18.05,13.93,26.95,19.73,31.15,22.14,4.2-2.4,13.1-8.2,31.14-22.13,33.76-26.07,51.03-50.3,53.58-56.34.73-3.01,1.78-8.86,1.81-10.09v-11.61H124.12v11.53Z"/>
    <rect class="cls-23" x="124.12" y="662.16" width="173.06" height="71.9"/>
    <path class="cls-28" d="m210.65,591.66c-31.34,0-72.21,4.52-86.53,7.14v63.36h173.06v-63.36c-14.31-2.62-55.18-7.14-86.53-7.14Z"/>
    <g>
      <path class="cls-29" d="m165.48,686.09h5.35v8.62c0,4.39-1.95,6.84-5.7,6.84s-5.7-2.45-5.7-6.84v-14.14c0-4.39,1.95-6.84,5.7-6.84s5.7,2.45,5.7,6.84v2.64h-3.61v-2.91c0-1.98-.76-2.68-1.98-2.68s-1.98.7-1.98,2.68v14.68c0,1.98.76,2.64,1.98,2.64s1.98-.66,1.98-2.64v-5.01h-1.74v-3.88Z"/>
      <path class="cls-29" d="m185.63,701.24h-3.86l-.66-4.93h-4.69l-.66,4.93h-3.51l3.89-27.19h5.59l3.89,27.19Zm-8.72-8.62h3.68l-1.84-13.75-1.84,13.75Z"/>
      <path class="cls-29" d="m195.4,701.24c-.03-.19-.1-.35-.14-.51-.1-.31-.17-.74-.17-1.48-.03-.35-.03-.82-.03-1.36v-4.27c0-2.53-.73-3.46-2.5-3.46h-1.32v11.07h-3.82v-27.19h5.77c4,0,5.66,2.06,5.66,6.25v2.14c0,2.8-.83,4.62-2.5,5.52,1.95.89,2.54,2.95,2.54,5.79v4.2c0,1.36.03,2.25.42,3.3h-3.89Zm-4.17-23.31v8.35h1.49c1.42,0,2.29-.7,2.29-2.87v-2.68c0-1.98-.59-2.8-1.95-2.8h-1.84Z"/>
      <path class="cls-29" d="m213.74,701.24h-3.86l-.66-4.93h-4.69l-.66,4.93h-3.51l3.89-27.19h5.59l3.89,27.19Zm-8.72-8.62h3.68l-1.84-13.75-1.84,13.75Z"/>
      <path class="cls-29" d="m218.92,681.55v19.69h-3.44v-27.19h4.8l3.93,16.28v-16.28h3.41v27.19h-3.93l-4.76-19.69Z"/>
      <path class="cls-29" d="m229.24,674.05h11.81v3.88h-4v23.31h-3.82v-23.31h-4v-3.88Z"/>
      <path class="cls-29" d="m248.73,668.3l-3.54,4.31h-2.57l2.36-4.31h3.75Zm-6.01,5.75h3.82v27.19h-3.82v-27.19Z"/>
      <path class="cls-29" d="m261.69,701.24h-3.86l-.66-4.93h-4.69l-.66,4.93h-3.51l3.89-27.19h5.59l3.89,27.19Zm-8.72-8.62h3.68l-1.84-13.75-1.84,13.75Z"/>
    </g>
    <g>
      <polygon class="cls-19" points="146.64 682.27 141.83 672.51 137.01 682.27 126.25 683.84 134.04 691.43 132.2 702.15 141.83 697.09 151.46 702.15 149.61 691.43 157.41 683.84 146.64 682.27"/>
      <polygon class="cls-17" points="146.64 682.27 141.83 672.51 141.32 687.33 126.25 683.84 134.04 691.43 132.2 702.15 141.32 687.33 141.83 697.09 151.46 702.15 141.32 687.33 157.41 683.84 146.64 682.27"/>
    </g>
    <g>
      <polygon class="cls-18" points="285.17 682.27 280.35 672.51 275.54 682.27 264.77 683.84 272.56 691.43 270.72 702.15 280.35 697.09 289.98 702.15 288.14 691.43 295.93 683.84 285.17 682.27"/>
      <polygon class="cls-5" points="285.17 682.27 280.35 672.51 279.85 687.33 264.77 683.84 272.56 691.43 270.72 702.15 279.85 687.33 280.35 697.09 289.98 702.15 279.85 687.33 295.93 683.84 285.17 682.27"/>
    </g>
    <g>
      <g>
        <polygon class="cls-2" points="214.76 713.75 211.3 706.76 207.85 713.75 200.14 714.87 205.72 720.31 204.4 727.99 211.3 724.36 218.2 727.99 216.88 720.31 222.47 714.87 214.76 713.75"/>
        <polygon class="cls-3" points="214.76 713.75 211.3 706.76 210.94 717.37 200.14 714.87 205.72 720.31 204.4 727.99 210.94 717.37 211.3 724.36 218.2 727.99 210.94 717.37 222.47 714.87 214.76 713.75"/>
      </g>
      <g>
        <polygon class="cls-4" points="187.88 710.61 185.38 705.56 182.89 710.61 177.31 711.42 181.34 715.36 180.39 720.91 185.38 718.29 190.37 720.91 189.42 715.36 193.45 711.42 187.88 710.61"/>
        <polygon class="cls-11" points="187.88 710.61 185.38 705.56 185.12 713.24 177.31 711.42 181.34 715.36 180.39 720.91 185.12 713.24 185.38 718.29 190.37 720.91 185.12 713.24 193.45 711.42 187.88 710.61"/>
      </g>
      <g>
        <polygon class="cls-9" points="166.57 708.1 164.89 704.7 163.22 708.1 159.46 708.65 162.18 711.29 161.54 715.03 164.89 713.26 168.25 715.03 167.61 711.29 170.32 708.65 166.57 708.1"/>
        <polygon class="cls-7" points="166.57 708.1 164.89 704.7 164.72 709.86 159.46 708.65 162.18 711.29 161.54 715.03 164.72 709.86 164.89 713.26 168.25 715.03 164.72 709.86 170.32 708.65 166.57 708.1"/>
      </g>
      <g>
        <polygon class="cls-6" points="234.26 711.04 236.75 705.99 239.25 711.04 244.83 711.85 240.79 715.79 241.75 721.34 236.75 718.72 231.77 721.34 232.72 715.79 228.68 711.85 234.26 711.04"/>
        <polygon class="cls-10" points="234.26 711.04 236.75 705.99 237.02 713.66 244.83 711.85 240.79 715.79 241.75 721.34 237.02 713.66 236.75 718.72 231.77 721.34 237.02 713.66 228.68 711.85 234.26 711.04"/>
      </g>
      <g>
        <polygon class="cls-8" points="255.57 708.53 257.24 705.13 258.92 708.53 262.67 709.08 259.96 711.72 260.6 715.46 257.24 713.69 253.89 715.46 254.53 711.72 251.81 709.08 255.57 708.53"/>
        <polygon class="cls-12" points="255.57 708.53 257.24 705.13 257.42 710.29 262.67 709.08 259.96 711.72 260.6 715.46 257.42 710.29 257.24 713.69 253.89 715.46 257.42 710.29 251.81 709.08 255.57 708.53"/>
      </g>
    </g>
    <g>
      <path class="cls-23" d="m158.45,750.35l-5.42-1.09c.45-1.93,1.32-3.41,2.6-4.44s3.09-1.54,5.44-1.54c2.69,0,4.64.56,5.84,1.68,1.2,1.12,1.8,2.53,1.8,4.23,0,1-.24,1.9-.73,2.71-.49.81-1.22,1.52-2.21,2.12.8.22,1.41.48,1.83.77.69.47,1.22,1.09,1.6,1.86.38.77.57,1.69.57,2.76,0,1.34-.31,2.63-.94,3.86-.63,1.23-1.53,2.18-2.72,2.85-1.18.67-2.74,1-4.66,1s-3.36-.25-4.44-.74c-1.08-.49-1.98-1.21-2.67-2.16-.7-.95-1.24-2.14-1.61-3.58l5.73-.85c.23,1.29.57,2.18,1.05,2.68.47.5,1.08.75,1.81.75.77,0,1.41-.31,1.92-.94.51-.63.77-1.47.77-2.52s-.25-1.9-.74-2.49-1.16-.88-2.01-.88c-.45,0-1.07.13-1.86.38l.3-4.58c.32.05.57.08.75.08.75,0,1.38-.27,1.88-.8.5-.54.75-1.17.75-1.9s-.19-1.26-.56-1.68c-.38-.42-.89-.63-1.55-.63s-1.22.23-1.65.68c-.42.46-.71,1.26-.86,2.4Z"/>
      <path class="cls-23" d="m195.35,762.94h-7.24l-1.01,3.81h-6.51l7.76-23.07h6.96l7.75,23.07h-6.68l-1.03-3.81Zm-1.32-4.99l-2.28-8.29-2.25,8.29h4.53Z"/>
      <path class="cls-23" d="m205.13,743.68h5.95l7.77,12.76v-12.76h6.01v23.07h-6.01l-7.73-12.67v12.67h-6v-23.07Zm12.71-5.73h2.22c0,.27.01.51.01.71,0,1.16-.26,2.07-.79,2.71s-1.2.96-2.03.96c-.6,0-1.51-.28-2.73-.83-.74-.34-1.25-.5-1.53-.5s-.48.09-.63.28c-.15.19-.23.52-.24,1.01h-2.2c0-.25-.01-.47-.01-.66,0-1.12.28-2.01.83-2.68.55-.66,1.21-.99,1.97-.99.33,0,.64.04.93.13s.83.31,1.61.68c.78.37,1.35.55,1.71.55.25,0,.46-.1.61-.29.16-.19.24-.55.26-1.06Z"/>
      <path class="cls-23" d="m228.3,755.23c0-3.77.94-6.7,2.82-8.8,1.88-2.1,4.49-3.15,7.84-3.15s6.08,1.03,7.94,3.09c1.86,2.06,2.79,4.95,2.79,8.66,0,2.7-.41,4.91-1.22,6.63-.81,1.73-1.98,3.07-3.52,4.03s-3.45,1.44-5.74,1.44-4.25-.41-5.78-1.24c-1.53-.83-2.76-2.14-3.71-3.93-.95-1.79-1.42-4.04-1.42-6.74Zm6.38.03c0,2.33.39,4,1.16,5.02s1.83,1.53,3.16,1.53,2.43-.5,3.18-1.49c.75-1,1.13-2.79,1.13-5.37,0-2.17-.39-3.76-1.18-4.76-.78-1-1.85-1.5-3.19-1.5s-2.32.51-3.1,1.53c-.78,1.02-1.17,2.7-1.17,5.05Z"/>
      <path class="cls-23" d="m252.01,759.11l6.07-.42c.13,1.1.4,1.94.8,2.52.66.93,1.6,1.4,2.82,1.4.91,0,1.61-.24,2.1-.72.49-.48.74-1.03.74-1.66s-.23-1.13-.7-1.61c-.47-.47-1.56-.92-3.27-1.34-2.8-.7-4.79-1.64-5.98-2.8-1.2-1.16-1.8-2.65-1.8-4.45,0-1.19.31-2.3.92-3.36s1.54-1.88,2.77-2.49c1.23-.6,2.93-.91,5.07-.91,2.64,0,4.65.55,6.03,1.64,1.38,1.1,2.21,2.84,2.47,5.23l-6.01.39c-.16-1.04-.5-1.79-1.01-2.27s-1.22-.71-2.12-.71c-.74,0-1.3.18-1.67.53-.38.35-.56.78-.56,1.28,0,.37.15.7.46.99.3.3,1.01.59,2.14.85,2.79.67,4.78,1.35,5.99,2.04,1.21.69,2.08,1.54,2.63,2.56.55,1.02.82,2.16.82,3.41,0,1.48-.37,2.84-1.1,4.09-.73,1.25-1.75,2.2-3.07,2.84-1.31.65-2.97.97-4.97.97-3.51,0-5.94-.75-7.29-2.27-1.35-1.51-2.12-3.43-2.29-5.76Z"/>
    </g>
    <g>
      <path class="cls-23" d="m266.21,775.37c0-1.19.94-2.15,2.11-2.15s2.12.96,2.12,2.15-.95,2.15-2.12,2.15-2.11-.96-2.11-2.15Z"/>
      <path class="cls-23" d="m258.18,775.37c0-1.19.95-2.15,2.11-2.15s2.11.96,2.11,2.15-.95,2.15-2.11,2.15-2.11-.96-2.11-2.15Z"/>
      <path class="cls-23" d="m250.15,775.37c0-1.19.95-2.15,2.11-2.15s2.11.96,2.11,2.15-.95,2.15-2.11,2.15-2.11-.96-2.11-2.15Z"/>
      <path class="cls-23" d="m242.12,775.37c0-1.19.94-2.15,2.11-2.15s2.11.96,2.11,2.15-.95,2.15-2.11,2.15-2.11-.96-2.11-2.15Z"/>
      <path class="cls-23" d="m234.09,775.37c0-1.19.95-2.15,2.11-2.15s2.11.96,2.11,2.15-.95,2.15-2.11,2.15-2.11-.96-2.11-2.15Z"/>
      <path class="cls-23" d="m226.06,775.37c0-1.19.95-2.15,2.11-2.15s2.12.96,2.12,2.15-.95,2.15-2.12,2.15-2.11-.96-2.11-2.15Z"/>
      <path class="cls-23" d="m218.02,775.37c0-1.19.95-2.15,2.12-2.15s2.11.96,2.11,2.15-.94,2.15-2.11,2.15-2.12-.96-2.12-2.15Z"/>
      <path class="cls-23" d="m209.99,775.37c0-1.19.95-2.15,2.11-2.15s2.11.96,2.11,2.15-.94,2.15-2.11,2.15-2.11-.96-2.11-2.15Z"/>
      <path class="cls-23" d="m201.97,775.37c0-1.19.94-2.15,2.11-2.15s2.12.96,2.12,2.15-.95,2.15-2.12,2.15-2.11-.96-2.11-2.15Z"/>
      <path class="cls-23" d="m193.93,775.37c0-1.19.95-2.15,2.12-2.15s2.1.96,2.1,2.15-.94,2.15-2.1,2.15-2.12-.96-2.12-2.15Z"/>
      <path class="cls-23" d="m185.91,775.37c0-1.19.95-2.15,2.11-2.15s2.11.96,2.11,2.15-.95,2.15-2.11,2.15-2.11-.96-2.11-2.15Z"/>
      <path class="cls-23" d="m177.88,775.37c0-1.19.94-2.15,2.11-2.15s2.12.96,2.12,2.15-.95,2.15-2.12,2.15-2.11-.96-2.11-2.15Z"/>
      <path class="cls-23" d="m169.84,775.37c0-1.19.95-2.15,2.11-2.15s2.12.96,2.12,2.15-.95,2.15-2.12,2.15-2.11-.96-2.11-2.15Z"/>
      <path class="cls-23" d="m161.81,775.37c0-1.19.95-2.15,2.11-2.15s2.12.96,2.12,2.15-.94,2.15-2.12,2.15-2.11-.96-2.11-2.15Z"/>
      <path class="cls-23" d="m153.78,775.37c0-1.19.95-2.15,2.11-2.15s2.11.96,2.11,2.15-.94,2.15-2.11,2.15-2.11-.96-2.11-2.15Z"/>
    </g>
    <g>
      <polygon class="cls-23" points="215.05 797.85 212.53 792.74 210 797.85 204.36 798.68 208.44 802.66 207.48 808.28 212.53 805.62 217.58 808.28 216.61 802.66 220.7 798.68 215.05 797.85"/>
      <polygon class="cls-23" points="197.85 793.2 196.59 790.64 195.33 793.2 192.51 793.61 194.55 795.6 194.07 798.41 196.59 797.08 199.12 798.41 198.64 795.6 200.68 793.61 197.85 793.2"/>
      <polygon class="cls-23" points="232.39 793 229.56 792.59 228.3 790.03 227.04 792.59 224.22 793 226.26 795 225.78 797.81 228.3 796.48 230.83 797.81 230.34 795 232.39 793"/>
      <polygon class="cls-23" points="186.53 792.34 185.26 789.75 183.98 792.34 181.13 792.75 183.19 794.76 182.71 797.6 185.26 796.26 187.8 797.6 187.32 794.76 189.38 792.75 186.53 792.34"/>
      <polygon class="cls-23" points="243.58 792.14 240.73 791.73 239.45 789.14 238.18 791.73 235.33 792.14 237.39 794.15 236.9 796.99 239.45 795.65 242.01 796.99 241.52 794.15 243.58 792.14"/>
    </g>
    <path class="cls-29" d="m192.39,637.89s-4.94,12.54-22.08,13.21c0-.06,12.54-3.33,22.08-13.21"/>
    <rect class="cls-24" x="156.1" y="623.13" width="3.72" height="19.64"/>
    <path class="cls-24" d="m179.19,642.72v-12.48c0-2.11-.06-4.38-3.38-4.38-1.89,0-4.72,1.11-6.38,1.78v15.09h-3.72v-19.64h3.44v1.78c3.88-1.72,5.22-2.16,7.93-2.16s5.94,1.66,5.94,5.99v14.04h-3.83Z"/>
    <path class="cls-24" d="m203.43,632.79c0,4.66-2,7.66-5.88,7.66s-5.94-3-5.94-7.66,2.05-7.38,5.94-7.38,5.88,2.77,5.88,7.38m3.99,0c0-6.27-3.66-10.15-9.93-10.15s-9.93,3.88-9.93,10.15,3.61,10.43,9.93,10.43c5.77,0,9.93-4.33,9.93-10.43"/>
    <path class="cls-24" d="m224.18,629.4c0,3.05-1.55,4.33-4.49,4.33-2.55,0-4.33-1.33-4.33-4.33,0-2.5,1.55-4.05,4.33-4.05s4.49,1.44,4.49,4.05m6.49-3.88v-3.11l-8.32.5c-.72-.11-1.55-.22-2.72-.22-4.72,0-8.27,2.27-8.27,6.94,0,3.27,1.83,4.77,3.16,5.55-1.83,1.33-2.83,2.55-2.83,4.44,0,3.5,3.83,3.83,7.71,3.83h2.66c1.33.06,4.22,0,4.22,1.89,0,1.66-2.94,2.94-6.94,2.94-2.05,0-4.77-.39-6.88-.78v2.83c2.72.55,5.16.67,7.55.67,6.05,0,10.26-1.94,10.26-6.21,0-6.1-8.99-4.33-12.82-4.72-1.44-.17-1.94-.55-1.94-1.17,0-1.05,1.22-2,2.05-2.55.67.11,1.39.17,2.05.17,6.82,0,8.43-3.94,8.43-6.94,0-1.89-.67-3.33-1.66-4.33,1.39.17,3.44.33,4.27.28"/>
    <path class="cls-24" d="m247.32,631.51h-10.49c.11-3.83,1.89-6.1,5.22-6.1,3.88-.06,5.16,2.55,5.27,6.1m4.22,2.66v-1c0-6.33-2.72-10.49-9.49-10.49-5.05,0-9.32,2.94-9.32,9.82s3.83,10.65,10.71,10.65c2.16,0,4.22-.11,6.55-.72v-2.66c-1.89.33-3.55.55-5.33.55-2.83,0-7.21-.17-7.82-6.21-.06.06,14.7.06,14.7.06Z"/>
    <path class="cls-24" d="m269.35,642.72v-12.48c0-2.11-.06-4.38-3.38-4.38-1.89,0-4.72,1.11-6.38,1.78v15.09h-3.72v-19.64h3.44v1.78c3.88-1.72,5.22-2.16,7.93-2.16s5.88,1.66,5.88,5.99v14.04h-3.77Z"/>
    <path class="cls-29" d="m138.68,609.54s86-7.99,58.2,24.03c0,0,21.08-41.28-58.2-24.03"/>
    <path class="cls-24" d="m276.23,624.02c0,.72-.61,1.33-1.39,1.33s-1.39-.61-1.39-1.33.61-1.33,1.39-1.33,1.39.55,1.39,1.33Zm-2.39,0c0,.61.44,1.05,1.05,1.05.55,0,1-.44,1-1.05s-.44-1.05-1.05-1.05-1,.44-1,1.05h0Zm.83.67h-.28v-1.33c.11,0,.28-.06.5-.06.28,0,.39.06.44.11.06.06.11.17.11.28,0,.17-.11.28-.28.33h0c.11.06.22.17.22.33.06.22.06.28.11.33h-.33c-.06-.06-.06-.17-.11-.33,0-.11-.11-.22-.28-.22h-.17l.06.55h0Zm0-.72h.17c.17,0,.28-.06.28-.17s-.11-.22-.28-.22h-.17v.39h0Z"/>
  </g>
  <g>
    <circle class="cls-28" cx="210.65" cy="411.21" r="114.83"/>
    <g>
      <path class="cls-23" d="m128.53,440.21l1.02,3.39-18.28-.12-1.23-4.08,15.17-10.2,1.02,3.39-11.77,7.64.04.12,14.04-.13Zm-6.51,2.19l-2.41-8.01,2.76-.83,2.41,8.01-2.76.83Z"/>
      <path class="cls-23" d="m125.11,427.96l-17.33,2.24-.79-6.12c-.15-1.17-.03-2.21.36-3.1.39-.89,1-1.61,1.83-2.16.83-.55,1.81-.9,2.96-1.05,1.15-.15,2.19-.06,3.13.27.94.33,1.71.88,2.3,1.66.6.78.97,1.76,1.13,2.95l.5,3.9-2.94.38-.43-3.37c-.08-.63-.27-1.14-.57-1.52s-.68-.64-1.14-.79c-.46-.15-.98-.19-1.55-.11-.58.07-1.07.24-1.47.5-.41.26-.7.61-.89,1.06s-.24.98-.16,1.62l.28,2.21,14.33-1.85.42,3.28Z"/>
      <path class="cls-23" d="m123.56,414.79l-17.47-.42.15-6.16c.03-1.18.29-2.18.78-3.01.49-.82,1.17-1.45,2.03-1.87.87-.42,1.88-.61,3.03-.59,1.16.03,2.15.28,2.97.74.82.47,1.45,1.13,1.87,1.99s.62,1.89.59,3.09l-.1,4.13-2.97-.07.09-3.59c.02-.63-.07-1.16-.25-1.58-.18-.42-.47-.74-.85-.96-.38-.22-.86-.33-1.43-.34-.58-.01-1.07.08-1.47.27-.4.2-.71.5-.93.92s-.33.94-.35,1.58l-.05,2.23,14.45.35-.08,3.3Zm-7.74-8.63l8.04-3.69-.09,3.65-8.04,3.61.09-3.56Z"/>
      <path class="cls-23" d="m118.13,385.59c1.87.37,3.4.99,4.59,1.88,1.19.89,2.02,1.94,2.5,3.16.48,1.22.58,2.51.32,3.86-.27,1.36-.85,2.52-1.76,3.47-.9.95-2.07,1.61-3.51,1.98s-3.08.38-4.95.01c-1.87-.37-3.4-.99-4.59-1.88-1.19-.89-2.02-1.94-2.5-3.16-.48-1.22-.58-2.51-.32-3.87.26-1.35.85-2.51,1.75-3.46s2.07-1.61,3.5-1.99c1.43-.38,3.09-.38,4.96-.02Zm-.64,3.29c-1.21-.24-2.26-.27-3.16-.12-.89.16-1.61.49-2.16.99-.54.5-.89,1.14-1.05,1.93-.15.78-.07,1.51.24,2.18.32.67.86,1.24,1.63,1.73s1.76.85,2.97,1.08c1.21.24,2.26.28,3.16.12.89-.16,1.61-.49,2.16-.99.54-.5.89-1.14,1.05-1.93.15-.78.07-1.51-.24-2.18-.32-.67-.86-1.24-1.63-1.73-.77-.49-1.76-.85-2.97-1.08Z"/>
      <path class="cls-23" d="m127.32,385.59l-16.33-6.21,2.22-5.85c.41-1.07.93-1.9,1.56-2.49.63-.58,1.33-.94,2.09-1.06.77-.12,1.56-.03,2.38.28.64.24,1.16.57,1.55.98.39.41.67.87.82,1.39.16.51.2,1.05.13,1.61l.16.06c.24-.55.61-1,1.12-1.37.51-.36,1.11-.59,1.81-.67.7-.08,1.45.03,2.25.33.87.33,1.57.81,2.1,1.46.53.64.85,1.41.96,2.3.11.9-.04,1.89-.46,2.98l-2.37,6.24Zm-8.32-6.7l.87-2.29c.16-.42.22-.83.18-1.23-.04-.39-.18-.75-.42-1.06-.24-.31-.57-.55-1-.71-.59-.22-1.14-.22-1.64.02-.5.24-.89.7-1.15,1.38l-.89,2.35,4.04,1.54Zm6.67,2.54l.96-2.52c.33-.86.38-1.56.16-2.09-.22-.53-.64-.92-1.25-1.15-.45-.17-.89-.23-1.31-.16-.42.06-.8.24-1.13.52-.33.28-.59.67-.78,1.17l-.99,2.59,4.34,1.65Z"/>
      <path class="cls-23" d="m133.58,370.66l-1.79,3.05-12.34-13.49,2.15-3.67,17.8,4.2-1.79,3.05-13.61-3.44-.06.11,9.64,10.2Zm-6.04-3.29l4.23-7.21,2.49,1.46-4.23,7.21-2.49-1.46Z"/>
      <path class="cls-23" d="m143.73,355.64l-3.59,4.22-13.31-11.32,3.62-4.26c1.02-1.2,2.16-2,3.43-2.42,1.26-.41,2.59-.43,3.98-.05,1.39.38,2.77,1.15,4.16,2.33,1.39,1.18,2.38,2.42,2.98,3.74.6,1.31.8,2.63.59,3.96-.21,1.32-.82,2.59-1.85,3.8Zm-3.86-.35l1.36-1.6c.63-.74,1.02-1.5,1.15-2.26.14-.76,0-1.54-.4-2.33-.41-.79-1.11-1.61-2.1-2.45-.98-.84-1.9-1.39-2.74-1.66-.84-.27-1.63-.28-2.35-.02-.73.26-1.41.76-2.04,1.5l-1.36,1.6,8.49,7.22Z"/>
      <path class="cls-23" d="m155.44,332.67c1.21,1.47,2,2.92,2.35,4.36.35,1.44.33,2.78-.08,4.03-.41,1.25-1.14,2.31-2.2,3.19-1.07.88-2.26,1.41-3.56,1.56-1.3.16-2.62-.07-3.97-.69-1.34-.62-2.62-1.67-3.83-3.13-1.21-1.47-2-2.92-2.35-4.36s-.33-2.78.07-4.02c.4-1.25,1.14-2.31,2.21-3.19,1.06-.88,2.25-1.4,3.55-1.56,1.3-.16,2.62.07,3.97.69s2.63,1.67,3.84,3.13Zm-2.58,2.13c-.79-.95-1.58-1.65-2.37-2.09-.79-.44-1.56-.65-2.29-.61-.74.04-1.41.32-2.03.83-.62.51-1.01,1.12-1.2,1.84-.18.72-.13,1.51.16,2.37.29.86.82,1.77,1.61,2.72.79.95,1.58,1.65,2.37,2.09s1.56.65,2.29.6c.74-.04,1.42-.32,2.03-.82.62-.51,1.01-1.12,1.19-1.84.18-.72.13-1.51-.16-2.37-.29-.86-.82-1.77-1.61-2.72Z"/>
      <path class="cls-23" d="m167.92,335.27l-7.7-15.68,4.74-2.33c1.1-.54,2.11-.76,3.03-.66.92.1,1.73.44,2.43,1.02s1.29,1.34,1.74,2.26c.45.92.7,1.85.73,2.77s-.19,1.77-.67,2.56-1.26,1.45-2.36,1.99l-3.4,1.67-.83-1.69,3.34-1.64c.75-.37,1.29-.81,1.6-1.33.31-.51.45-1.07.42-1.67-.04-.6-.21-1.21-.52-1.84-.31-.63-.69-1.14-1.14-1.53-.45-.39-.98-.62-1.58-.68-.6-.06-1.28.1-2.04.48l-2.99,1.47,6.87,14-1.7.83Z"/>
      <path class="cls-23" d="m178.86,330.09l-1.88.62-.02-18.39,1.86-.61,10.92,14.8-1.88.62-9.04-12.51-.12.04.17,15.43Zm-1.44-6.71l7.6-2.5.59,1.78-7.6,2.5-.59-1.78Z"/>
      <path class="cls-23" d="m191.53,326.2l-2.84-17.24,5.21-.86c1.21-.2,2.23-.13,3.08.2.85.33,1.52.86,2.03,1.6.5.74.84,1.61,1.01,2.63.17,1.02.13,1.95-.11,2.79-.24.85-.71,1.56-1.4,2.13-.7.57-1.64.96-2.83,1.15l-4.22.69-.31-1.89,4.16-.68c.82-.14,1.46-.38,1.92-.73.46-.35.76-.8.91-1.33.15-.53.16-1.15.05-1.84-.11-.69-.33-1.27-.64-1.75-.32-.48-.75-.82-1.31-1.02-.55-.2-1.25-.23-2.08-.09l-3.28.54,2.53,15.39-1.87.31Zm5.99-8.94l5.07,7.12-2.17.36-5.01-7.13,2.11-.35Z"/>
      <path class="cls-23" d="m205.13,324.28l-1.99.02,5.58-17.52,1.95-.02,5.89,17.42-1.98.02-4.8-14.66h-.12s-4.54,14.75-4.54,14.75Zm.67-6.83l8-.07.02,1.88-8,.07-.02-1.88Z"/>
      <path class="cls-23" d="m237.95,310.29l1.85.42-2.57,11.28c-.26,1.17-.74,2.15-1.44,2.95s-1.55,1.36-2.56,1.68c-1.01.32-2.11.35-3.3.08-1.19-.27-2.18-.77-2.95-1.5-.77-.73-1.29-1.6-1.58-2.62-.28-1.02-.29-2.12-.02-3.28l2.56-11.28,1.85.42-2.53,11.11c-.19.83-.19,1.61-.01,2.33.18.72.53,1.33,1.06,1.84.52.51,1.21.86,2.06,1.05.85.19,1.62.17,2.31-.06.69-.23,1.28-.63,1.75-1.2.47-.57.8-1.27.99-2.11l2.53-11.11Z"/>
      <path class="cls-23" d="m251.74,319.86c.24-.84.15-1.6-.27-2.28-.42-.69-1.07-1.21-1.95-1.57-.64-.26-1.25-.37-1.82-.34-.57.04-1.08.21-1.51.5-.43.3-.75.7-.96,1.22-.18.43-.23.84-.17,1.22.06.38.2.74.41,1.06.21.32.45.61.72.87.27.26.52.48.76.67l1.29,1.04c.33.26.69.59,1.07.97.38.38.72.83,1.01,1.34.29.51.47,1.08.53,1.71.07.63-.06,1.33-.36,2.09-.36.87-.88,1.58-1.58,2.12-.69.54-1.52.86-2.47.96-.95.1-1.98-.08-3.09-.53-1.04-.42-1.86-.97-2.46-1.66s-.99-1.44-1.14-2.29c-.16-.84-.09-1.72.22-2.63l1.81.74c-.2.63-.22,1.21-.06,1.74.16.53.45.99.87,1.39.42.4.92.71,1.49.94.67.27,1.32.39,1.95.37.63-.03,1.19-.2,1.68-.51.49-.31.85-.77,1.09-1.35.22-.54.26-1.03.13-1.48-.13-.45-.37-.86-.73-1.25-.35-.39-.75-.77-1.2-1.13l-1.55-1.29c-.98-.82-1.67-1.71-2.05-2.65-.39-.94-.36-1.96.09-3.05.37-.91.91-1.61,1.63-2.11.72-.5,1.52-.78,2.42-.86.9-.07,1.81.08,2.74.46.93.38,1.69.9,2.26,1.57.58.67.94,1.41,1.11,2.22.17.82.09,1.64-.21,2.46l-1.7-.69Z"/>
      <path class="cls-23" d="m266.7,333.31c-.97,1.57-2.06,2.77-3.27,3.6-1.21.83-2.45,1.28-3.71,1.36-1.27.08-2.47-.24-3.6-.94-1.13-.7-1.95-1.63-2.45-2.8-.5-1.16-.65-2.47-.46-3.93.2-1.46.78-2.97,1.75-4.54.97-1.57,2.06-2.77,3.27-3.6s2.45-1.28,3.71-1.36c1.26-.07,2.47.24,3.6.94,1.14.7,1.95,1.63,2.46,2.8.5,1.16.65,2.47.46,3.93-.2,1.45-.78,2.97-1.75,4.53Zm-1.56-.96c.79-1.29,1.27-2.49,1.44-3.62.16-1.12.06-2.11-.31-2.97-.37-.86-.96-1.53-1.76-2.03-.81-.5-1.67-.72-2.61-.67-.93.05-1.86.4-2.79,1.05-.93.65-1.79,1.62-2.59,2.91-.79,1.29-1.27,2.49-1.43,3.62-.16,1.12-.06,2.11.31,2.97.37.86.96,1.53,1.77,2.03.8.5,1.67.72,2.61.66.93-.05,1.86-.4,2.79-1.05.93-.65,1.79-1.62,2.58-2.91Z"/>
      <path class="cls-23" d="m268.48,346.09l12.27-12.44,6.71,6.62-1.32,1.34-5.37-5.29-4.15,4.2,5.02,4.95-1.32,1.34-5.02-4.95-4.17,4.23,5.46,5.38-1.32,1.33-6.8-6.71Z"/>
      <path class="cls-23" d="m298.51,354.37l-14.07,10.36-1.09-1.48,6-14.99-.09-.12-11.05,8.13-1.12-1.52,14.07-10.36,1.09,1.47-6.01,15.04.09.12,11.07-8.15,1.1,1.5Z"/>
      <path class="cls-23" d="m288.98,373.06l-.77-1.83,18.33-1.49.76,1.8-13.87,12.07-.77-1.83,11.74-10.01-.05-.11-15.37,1.41Zm6.57-1.97l3.1,7.37-1.73.73-3.1-7.37,1.73-.73Z"/>
      <path class="cls-23" d="m310.53,380.24l-13.06,8.2.05.18,15.4.79.5,1.92-18.35-1.15-.49-1.89,15.46-9.96.5,1.92Z"/>
      <path class="cls-23" d="m314.15,397.08l-17.29,2.51-.27-1.87,17.29-2.51.27,1.87Z"/>
      <path class="cls-23" d="m306.5,415.84c-1.84.04-3.44-.22-4.8-.78-1.36-.56-2.41-1.36-3.16-2.38-.75-1.02-1.14-2.2-1.17-3.53-.03-1.33.3-2.53,1.01-3.58.7-1.06,1.72-1.9,3.05-2.52,1.33-.63,2.91-.96,4.75-1.01,1.84-.04,3.44.22,4.8.78s2.41,1.36,3.16,2.38,1.14,2.2,1.18,3.53c.03,1.33-.31,2.53-1.01,3.58-.7,1.05-1.72,1.89-3.05,2.52s-2.91.96-4.75,1Zm-.04-1.83c1.51-.04,2.78-.29,3.81-.77,1.03-.47,1.8-1.1,2.32-1.88.52-.78.76-1.64.74-2.59-.02-.95-.31-1.79-.86-2.55-.55-.75-1.35-1.34-2.41-1.77-1.05-.42-2.33-.62-3.84-.58-1.51.03-2.78.29-3.81.76s-1.8,1.1-2.32,1.88c-.52.78-.76,1.64-.74,2.59.02.95.31,1.79.86,2.55.55.75,1.35,1.34,2.41,1.77,1.05.43,2.33.62,3.84.59Zm10.37-6.14l4,1.77.05,2.11-4.01-2.29-.04-1.59Z"/>
      <path class="cls-23" d="m312.9,433.43l-17.26-2.68.28-1.81,14.86-6.31.02-.15-13.56-2.11.29-1.87,17.26,2.68-.28,1.81-14.9,6.33-.02.15,13.59,2.11-.29,1.84Z"/>
    </g>
    <g id="g3838">
      <path id="path106" class="cls-27" d="m293.3,411.46l-.1,4.2-.3,4.2-.5,4.1-.7,4.1-.9,4-1.1,3.9-1.3,3.8-1.5,3.8-1.7,3.6-1.8,3.6-2,3.4-2.1,3.4-2.3,3.2-2.5,3.1-2.6,3-2.7,2.9-2.9,2.7-3,2.6-3.1,2.4-3.2,2.3-3.4,2.2-3.5,2-3.6,1.8-3.7,1.6-3.8,1.5-3.8,1.3-3.9,1.1-4,.9-4.1.7-4.1.6-4.2.3-4.3.1c-45.65-.03-82.63-37.05-82.6-82.7s37.05-82.63,82.7-82.6c45.65.03,82.63,37.05,82.6,82.7,0,.07,0,.13,0,.2Z"/>
      <path id="path108" class="cls-26" d="m289.9,411.46l-.1,4.1-.3,4-.5,3.9-.7,4-.9,3.8-1.1,3.8-1.2,3.7-1.4,3.6-1.6,3.5-1.7,3.4-1.9,3.3-2.1,3.2-2.2,3.1-2.4,3-2.5,2.9-2.6,2.7-2.8,2.6-2.9,2.5-3,2.4-3.1,2.2-3.2,2.1-3.3,1.9-3.4,1.8-3.5,1.6-3.6,1.4-3.7,1.2-3.8,1.1-3.8.9-3.9.7-4,.5-4,.3-4.1.1c-43.74-.06-79.16-35.56-79.1-79.3.06-43.74,35.56-79.16,79.3-79.1,43.66.06,79.04,35.44,79.1,79.1Z"/>
      <path id="path110" class="cls-22" d="m286.7,411.36l-.1,3.9-.3,3.9-.5,3.8-.7,3.8-.8,3.7-1,3.6-1.2,3.5-1.4,3.4-1.5,3.4-1.7,3.3-1.8,3.2-2,3.1-2.1,3-2.2,2.9-2.4,2.8-2.5,2.6-2.6,2.5-2.8,2.4-2.9,2.2-3,2.1-3.1,2-3.2,1.8-3.2,1.6-3.4,1.5-3.4,1.4-3.5,1.2-3.6,1-3.7.8-3.7.7-3.8.5-3.9.3-4,.2c-41.97,0-76-34.03-76-76,0-41.97,34.03-76,76-76,41.93,0,75.94,33.97,76,75.9Z"/>
      <path id="path112" class="cls-29" d="m210.7,359.96l-2.6.1-2.6.2-2.6.3-2.5.4-2.5.6-2.4.7-2.4.8-2.3.9-2.3,1-2.2,1.1-2.2,1.3-2.1,1.3-2,1.4-1.9,1.5-1.9,1.6-1.8,1.7-1.7,1.8-1.6,1.9-1.5,2-1.4,2-1.3,2-1.2,2.2-1.1,2.2-1,2.3-.9,2.4-.8,2.4-.7,2.5-.6,2.5-.4,2.6-.3,2.6-.2,2.6-.1,2.6c.03,28.42,23.08,51.43,51.5,51.4,28.42-.03,51.43-23.08,51.4-51.5-.4-28.3-23.4-51.4-51.8-51.4Z"/>
      <path id="path282" class="cls-26" d="m248.7,438.36l1-1.4.9-1.5.9-1.5.8-1.6.8-1.6.7-1.6.6-1.6.6-1.7.5-1.7.5-1.7.4-1.8.3-1.8.2-1.8.2-1.8.1-1.8v-1.9h9.7l-.2-.4-9.6-.9c-.39-13.96-6.99-27.01-18-35.6,1.52-1.32,2.89-2.79,4.1-4.4.69-.8.91-1.89.6-2.9-2.58,1.88-5.32,3.52-8.2,4.9-.6-.4-1.3-.8-1.9-1.2h0c-7-4.03-14.92-6.17-23-6.2v-9.6l-.4.2-.7,9.4c-24.96.52-45.11,20.55-45.8,45.5l-9.1.8-.2.4h9.3c0,25.42,20.29,46.19,45.7,46.8l.8,9.4.4.2v-9.6c15.1-.34,29.17-7.74,38-20Z"/>
      <path id="path114" class="cls-26" d="m256.3,411.36l-.1,2.4-.2,2.4-.3,2.3-.4,2.2-.5,2.2-.6,2.2-.7,2.1-.8,2.1-.9,2-1,2-1.1,1.9-1.2,1.9-1.3,1.8-1.3,1.7-1.4,1.7-1.5,1.6-1.6,1.5-1.7,1.4-1.7,1.4-1.8,1.3-1.8,1.2-1.9,1.1-2,1-2,.9-2.1.8-2.1.7-2.2.6-2.2.5-2.2.4-2.3.3-2.3.2-2.4.1c-25.21.03-45.67-20.39-45.7-45.6-.03-25.21,20.39-45.67,45.6-45.7,25.13-.03,45.56,20.27,45.7,45.4Z"/>
      <path id="path116" class="cls-29" d="m143,395.96l11,2.9.5-1.9s-4.3-1.2-4.8-1.3c.1-.5,1-3.7,1-3.7l-1.6-.4s-.9,3.2-1,3.7l-3-.8c.1-.5,1.2-4.4,1.2-4.4l-1.6-.4-1.7,6.3Z"/>
      <path id="path118" class="cls-29" d="m146.4,384.76l10.3,4.8,2.8-6.2-1.5-.7s-1.8,3.9-2,4.4c-.4-.2-2.7-1.3-3.1-1.4.2-.5,1.6-3.5,1.6-3.5l-1.5-.7-1.6,3.4c-.4-.2-2.3-1.1-2.7-1.2.2-.5,1.9-4.1,1.9-4.1l-1.5-.7-2.7,5.9Z"/>
      <path id="path120" class="cls-29" d="m154.3,370.76l-2.5,3.4,9.2,6.7,2.5-3.4c.82-1.08,1.18-2.45,1-3.8-.32-1.64-1.3-3.09-2.7-4-2.8-2-5.5-1.6-7.5,1.1Zm1,1.4l.1-.1.1-.1.1-.1.1-.2.1-.1.1-.1.1-.1.1-.1.1-.1.1-.1.2-.1.1-.1.2-.1h.2l.2-.1h1.9l.2.1.2.1h.4l.1.1h.1l.1.1.1.1.1.1.1.1.1.1h.1c1.01.63,1.73,1.64,2,2.8v.4c.02.65-.2,1.29-.6,1.8l-1.2,1.8c-.4-.3-6.1-4.4-6.6-4.7.3-.4,1-1.4,1-1.4Z"/>
      <path id="path124" class="cls-29" d="m160.8,362.76l7.8,8.3,5-4.7-1.1-1.2s-3.1,3-3.5,3.3c-.3-.4-2.1-2.2-2.4-2.5.4-.3,2.7-2.6,2.7-2.6l-1.1-1.2s-2.4,2.3-2.8,2.6c-.3-.4-1.8-1.8-2-2.2l3.2-3.1-1.2-1.2-4.6,4.5Z"/>
      <path id="path126" class="cls-29" d="m172.6,353.06l-3.2,2.1,6.3,9.5,1.7-1.1s-2.2-3.4-2.5-3.8l.8-.6,5.1,2.1,2.1-1.4-6-2.3c.67-1.18.67-2.62,0-3.8-.41-.65-1.05-1.12-1.8-1.3-.88-.09-1.76.12-2.5.6Zm.4,1.8h.1l.1-.1h1c.33.11.61.32.8.6.29.33.44.76.4,1.2,0,.7-.5,1.3-1.4,2l-.3.2c-.2-.4-1.7-2.5-1.9-2.9l1.2-1Z"/>
      <path id="path130" class="cls-29" d="m183.7,347.16l.1,12.2,1.7-.7v-3.3c.3-.1,3.7-1.5,4-1.7.2.3,2.3,2.4,2.3,2.4l2-.8-8.4-8.8-1.7.7Zm1.8,2.3h0l.1.2.1.1.1.1.1.1.1.1.1.1.1.1.1.1.1.1.2.2.2.2.2.2.2.2.1.1.1.1.1.1.1.1.1.1.1.1.1.1.1.1.1.1.1.1.1.1h.2v.1c-.6.2-2.3.9-2.8,1.1-.18-1.36-.24-2.73-.2-4.1Z"/>
      <path id="path134" class="cls-29" d="m194.1,343.66l2.3,11.1,6.8-1.3-.3-1.6-4.8,1-1.9-9.6-2.1.4Z"/>
      <path id="path136" class="cls-29" d="m212.1,352.86l1.9.2s1.4-2.6,1.6-2.9l4.3.5c.1.3.9,3.2.9,3.2l2.2.3-3.2-11.8-1.8-.2-5.9,10.7Zm6.2-8v1.4l.4.2.1.3.1.3.1.3v1.6h0c-.6,0-2.4-.3-3-.3.89-1.19,1.66-2.46,2.3-3.8Z"/>
      <path id="path140" class="cls-29" d="m226.7,355.26l1.8.6,7.2-9.7-1.8-.6s-4.6,6.1-5.3,7.2c-.1-1.3-.6-9-.6-9l-2.1-.6.8,12.1Z"/>
      <polygon id="polygon142" class="cls-29" points="234.6 358.16 236.4 359.06 241.3 348.76 239.5 347.86 234.6 358.16"/>
      <path id="path144" class="cls-29" d="m238.9,360.06l1.6,1.1s2.4-1.7,2.7-1.9l3.6,2.5c-.1.3-.7,3.2-.7,3.2l1.8,1.3,2.7-12-1.5-1-10.2,6.8Zm9.2-4.1h0v1.2l-.4.3-.1.3-.1.3-.1.3v1.1h0v.6c-.5-.3-2-1.4-2.5-1.7.97-.92,2.05-1.72,3.2-2.4Z"/>
      <path id="path148" class="cls-29" d="m257.3,361.86h0l-.1.1-.1.1h-.1l-.1.1-.1.1-.1.1-.1.1-.1.1-.1.1-.1.1-.2.2-.3.2-.3.3-.3.3-.3.3-.3.3-.3.3-.6.6-.3.3-.3.3-.3.3-.3.3-.3.3-.3.3-.2.3-.2.2-.1.1-.1.1-.1.1-.1.1-.1.1-.1.1-.1.1h-.1l-.1.1-.1.1h0l1.4,1.4,6.8-7c.4.3,2.7,2.7,2.7,2.7l1.2-1.2-6.9-6.7-1.2,1.2,2.8,3Z"/>
      <polygon id="polygon150" class="cls-29" points="256.1 374.86 257.4 376.56 266.4 369.56 265.1 367.96 256.1 374.86"/>
      <path id="path152" class="cls-29" d="m264.3,376.16h0c-3.2,1.7-4.2,4.7-2.7,7.5.62,1.21,1.7,2.11,3,2.5,1.63.43,3.36.17,4.8-.7,3.2-1.7,4.3-4.7,2.7-7.5s-4.6-3.6-7.8-1.8Zm-1.3,6.7l-.1-.1-.1-.1v-.2l-.1-.1v-1.6l.1-.2.1-.2.1-.2.1-.2.1-.2.1-.2.1-.2.1-.2.1-.2.1-.1.1-.1.1-.1.1-.1.1-.1.1-.1.5.1.1-.1.1-.1.1-.1.1-.1h.1l.1-.1c1.07-.67,2.35-.92,3.6-.7.71.26,1.31.75,1.7,1.4.28.41.42.9.4,1.4,0,1.7-1.8,2.9-2.7,3.4-1.1.7-3.9,1.9-5.3-.6Z"/>
      <path id="path156" class="cls-29" d="m265.3,390.76l.5,1.8s6.1-1.8,7.6-2.2c-1,1.2-6.1,7-6.1,7l.5,1.8,10.9-3.2-.5-1.8s-6.1,1.8-7.6,2.2c1-1.1,6.1-7,6.1-7l-.5-1.8-10.9,3.2Z"/>
      <path id="path158" class="cls-29" d="m143,429.76h3.4c.1.3,1.3,4.1,1.4,4.4l-2.7,2.2.7,2.1,9.9-8.3-.6-1.8-12.9-.8.8,2.2Zm5.3.3h4.3c-.8.7-2.9,2.5-3.4,2.9-.24-.99-.54-1.95-.9-2.9Z"/>
      <path id="path162" class="cls-29" d="m148.1,443.16l2.3,3.8c.68,1.28,1.89,2.19,3.3,2.5,1.72.36,3.51.04,5-.9,1.39-.74,2.43-2,2.9-3.5.3-1.45.01-2.96-.8-4.2l-2.3-3.8-10.4,6.1Zm9.9-3.5h0v.2h0v.2l.1.1.1.1.1.2h0v.1h0v.1h0v.1h0c.43.69.67,1.49.7,2.3,0,1.1-.6,2.2-2.3,3.2-3.4,2-5,.2-5.6-.7l-1.2-2c1.2.2,7.7-3.6,8.1-3.9h0Z"/>
      <path id="path166" class="cls-29" d="m156.9,456.46l1.3,1.4s4.2-4.1,5.8-5.7l-3.4,7,1.3,1.4,7.1-3.2-5.8,5.7,1.4,1.5,8.5-8.4-1.7-1.7s-7,3.2-8.2,3.7c.6-1.1,3.9-8.1,3.9-8.1l-1.9-1.9-8.3,8.3Z"/>
      <polygon id="polygon168" class="cls-29" points="169.7 468.06 171.4 469.36 178.3 459.46 176.6 458.26 169.7 468.06"/>
      <path id="path170" class="cls-29" d="m176.6,472.66l1.7.8s2.9-6.2,3.6-7.6c.2,1.5,1.3,9.9,1.3,9.9l1.8.8,5.1-10.8-1.7-.8-3.6,7.6c-.2-1.6-1.3-9.8-1.3-9.8l-1.8-.9-5.1,10.8Z"/>
      <polygon id="polygon172" class="cls-29" points="190.8 478.46 192.8 479.06 196 467.56 194 466.96 190.8 478.46"/>
      <path id="path174" class="cls-29" d="m199.1,471.46v1.2l.1.1.1.1.1.1.1.1.1.1.1.1.1.1.1.1.1.1.1.1.1.1.1.1.1.1.1.1.2.2.2.2.2.2.2.2.2.1c1.1.9,2.1,1.6,2,2.8-.2.91-1.09,1.49-2,1.3h0c-1.05-.21-2.05-.65-2.9-1.3l-.4-.2-.3,2.2.2.1c.93.49,1.95.8,3,.9,3.3.4,4.4-1.7,4.6-2.9.3-2.1-1.3-3.2-2.7-4.3-1.1-.8-2-1.5-1.9-2.4.19-.8,1-1.29,1.8-1.1h0s.1,0,.1,0c.78.18,1.52.48,2.2.9l.6.3.3-2-.2-.1c-.86-.42-1.76-.72-2.7-.9-1.86-.4-3.69.78-4.09,2.64,0,.02,0,.04-.01.06v.5Z"/>
      <path id="path176" class="cls-29" d="m208.8,469.56l.1,1.7s3.5-.2,4-.2c0,.6.5,10.3.5,10.3l2.1-.1s-.5-9.7-.5-10.3c.5,0,4-.2,4-.2l-.1-1.7-10.1.5Z"/>
      <path id="path178" class="cls-29" d="m225.4,467.56l-3.9,1,3,11.6,2-.5-1.2-4.7,1.1-.3,4.4,3.9,2.5-.7s-4.8-4-5.2-4.4c.88-.7,1.4-1.77,1.4-2.9.02-.27-.01-.54-.1-.8-.19-.8-.69-1.48-1.4-1.9-.77-.5-1.73-.61-2.6-.3Zm-.2,1.8h1.3c.31.21.52.53.6.9.08.22.12.46.1.7-.02.31-.09.61-.2.9-.4.68-1.11,1.13-1.9,1.2h-.4c-.1-.4-.8-3.1-.9-3.5.47-.02.94-.09,1.4-.2h0Z"/>
      <path id="path182" class="cls-29" d="m235.3,463.96l1,12.8,1.8-.9s-.2-3.1-.3-3.4l4.2-2,2.6,2.4,2-1-9.5-8.7-1.8.8Zm2,2.3h0l.2.1.1.1.1.1.1.1.1.1.1.1.1.1.1.1.1.1.2.2.2.2.3.2.2.2.1.1.1.1.1.1.1.1.1.1.1.1.1.1.1.1.1.1.1.1.1.1.1.1h.1l-2.9,1.4c0-.5-.2-3.3-.3-4.3h0Z"/>
      <path id="path186" class="cls-29" d="m241.9,460.66l1,1.4s2.8-2.1,3.2-2.5c.3.5,6.2,8.2,6.2,8.2l1.7-1.3-6.2-8.1,3.2-2.5-1-1.3-8.1,6.1Z"/>
      <polygon id="polygon188" class="cls-29" points="252 452.26 260.6 460.56 262.1 459.06 253.4 450.76 252 452.26"/>
      <path id="path190" class="cls-29" d="m261.9,441.56h-.8l-.1.1h-.4l-.1.1-.1.1h-.1l-.1.1-.1.1-.1.1-.1.1-.1.1-.1.1-.1.1-.1.1-.1.1-.1.1-.1.1-.1.1-.1.1-.1.1-.1.1-.1.1-.1.1-.1.1c-1.9,2.8-1.1,6,2,8.2,1.39,1.08,3.17,1.51,4.9,1.2,2.86-.71,4.72-3.48,4.3-6.4-.99-3.47-4.31-5.74-7.9-5.4l.1.3Zm-.1,8.6h-.1l-.1-.1h-.1l-.1-.1-.1-.1-.1-.1h-.1l-.1-.1-.1-.1-.1-.1-.1-.1v.1l-.1-.1-.1-.1-.1-.1-.1-.1-.1-.1-.1-.1-.1-.1-.1-.1-.1-.1-.1-.1-.1-.1-.1-.2-.1-.1-.1-.1-.1-.1v-.7c-.14-.8.04-1.63.5-2.3.4-.71,1.1-1.19,1.9-1.3,1.36-.1,2.71.29,3.8,1.1,1.1.8,3.6,2.8,1.9,5.3s-4.3,1-5.5.2h0Z"/>
      <path id="path196" class="cls-29" d="m266.5,428.46l-.6,1.5,7.8,3.1-9.7,1.9-.7,1.8,11.2,4.4.7-1.8-7.8-3.1,9.8-2,.7-1.8-11.1-4.4-.3.4Z"/>
      <polygon id="polygon198" class="cls-29" points="270.2 409.46 273.5 409.46 274.5 406.36 275.5 409.46 278.8 409.46 276.1 411.36 277.1 414.56 274.5 412.66 271.8 414.56 272.8 411.36 270.2 409.46"/>
      <polygon id="polygon200" class="cls-29" points="142.5 409.56 145.8 409.56 146.8 406.36 147.8 409.56 151.1 409.56 148.4 411.46 149.5 414.56 146.8 412.66 144.2 414.56 145.1 411.46 142.5 409.56"/>
      <path id="path202" class="cls-25" d="m255.3,417.36l-.3.6-.4.6-.4.6-.4.6-.4.6-.5.6-.5.6-.5.6-.5.6-.6.6-.6.6-.6.5-.6.5-.6.5-.7.5-.7.5c1.31-4.82,1.89-9.81,1.7-14.8h6.9c.04,1.9-.06,3.81-.3,5.7Z"/>
      <path id="path204" class="cls-25" d="m247.2,437.66l-.5.6-.5.6-.6.6-.6.6-.6.6-.6.6-.7.5-.7.6-.7.6-.8.5-.8.5-.8.5-.8.5-.8.4-.9.5-.9.4c4.71-5.09,8.29-11.12,10.5-17.7,3.13-1.9,5.91-4.34,8.2-7.2-1.38,5.86-3.9,11.4-7.4,16.3Z"/>
      <path id="path206" class="cls-25" d="m228.8,452.66l.5-.4.5-.4.5-.4.5-.4.5-.4.5-.4.5-.4.5-.5c2-.72,3.93-1.59,5.8-2.6-3.01,2.36-6.3,4.34-9.8,5.9Z"/>
      <path id="path208" class="cls-25" d="m222.4,454.96l-.7.2-.7.2-.7.1-.7.2-.7.1-.7.1-.7.1-.7.1c1-1.2,1.9-2.4,2.8-3.5,3.08-.38,6.12-1.02,9.1-1.9-2,1.58-4.1,3.02-6.3,4.3Z"/>
      <path id="path210" class="cls-25" d="m210.7,456.56v-3.4h0c2.3,0,4.6-.2,6.9-.4-.9,1.2-1.9,2.4-2.9,3.5-1.32.2-2.66.3-4,.3Z"/>
      <path id="path212" class="cls-25" d="m227.7,435.96l-.4.9-.4.9-.4.9-.5.9-.5.9-.5.9-.5.9-.5.9-.6,1-.7,1.3-.6.9-.6.9-.6.9-.6.9-.7.9-.7.9c-2.72.32-5.46.49-8.2.5h0v-13.8c5.71.17,11.42-.37,17-1.6Z"/>
      <path id="path214" class="cls-25" d="m210.7,413.06h0c5.51.02,11-.52,16.4-1.6h5c.49,7.78-.78,15.57-3.7,22.8-5.81,1.32-11.74,1.99-17.7,2v-23.2Z"/>
      <path id="path216" class="cls-25" d="m214.3,366.46l-.2.1-.2.2-.2.1-.2.2-.2.2-.2.1-.2.2-.2.2-.2.2-.2.2-.2.2-.2.2-.2.2-.2.2-.2.2-.2.2v-2.8c1.05-.24,2.14-.27,3.2-.1Z"/>
      <path id="path218" class="cls-25" d="m228.1,369.86l-1-.2-1-.1-1-.1-1-.1-1-.1-1-.1h-7.5l-.9.1-.9.1c1.23-1.02,2.57-1.89,4-2.6,3.89.52,7.69,1.57,11.3,3.1Z"/>
      <path id="path220" class="cls-25" d="m234,372.86l-.8.3-.8.4-.8.3-.8.3-.8.3-.8.3-.8.2-.8.3c-3.44-2.01-7.14-3.52-11-4.5,5.61-.12,11.21.42,16.7,1.6.19.22.43.39.7.5Z"/>
      <path id="path222" class="cls-25" d="m237.9,375.66h.1l.1.1.1.1.1.1.1.1.1.1h.2c-3.55,2.76-7.64,4.73-12,5.8-.01-.11.02-.22.1-.3,3.85-1.7,7.57-3.71,11.1-6Z"/>
      <path id="path224" class="cls-25" d="m246.2,403.46l.1.8.1.7.1.7.1.7.1.7.1.7.1.7.1.7-9.9-.9c3.27-1.11,6.34-2.73,9.1-4.8Z"/>
      <path id="path226" class="cls-25" d="m228.5,391.76h0l.1-.2.1-.1h0v-.1l.1-.1v-.4l.1-.1.1-.2.1-.2.1-.1v-.1l.1-.1v-.6c-2.27,1.01-4.72,1.59-7.2,1.7q0-.1.1-.2c.17-.02.34-.06.5-.1,6.8-1.3,11.3-4.5,12.2-5.5.47-.52.81-1.13,1-1.8,4.89,5.1,8.4,11.37,10.2,18.2-3.69,2.79-7.86,4.89-12.3,6.2h-.2c-.24-1.88-.57-3.75-1-5.6-1.2-3.5-2.5-7.1-4.1-10.6Z"/>
      <path id="path228" class="cls-25" d="m217.5,377.76l-.9.2-.9.2-.9.2-.9.2-.8.2-.8.2-.8.2-.8.2v-8.3h.2c2.32,2.11,4.53,4.34,6.6,6.7Z"/>
      <path id="path230" class="cls-25" d="m219.1,377.46l-.4-.4-.4-.4-.3-.4-.4-.4-.4-.4-.3-.4-.4-.4-.3-.3-.4-.3-.3-.4-.3-.3-.3-.3-.3-.3-.3-.4-.3-.3-.3-.3c4.09.8,8.04,2.21,11.7,4.2-2.2.5-4.3,1-6.3,1.5Z"/>
      <path id="path232" class="cls-25" d="m235,382.96l-.5.3-.5.3-.5.3-.5.2-.5.3-.5.2-.5.2-.5.2-.5.2-.5.2-.5.2-.4.2-.4.2-.4.1-.4.2-.4.1-.4.1-.4.1-.4.1-.4.1-.3.1-.3.1h-.3l-.3.1h-.7s0-.2.1-.2c3.7-.9,7.26-2.28,10.6-4.1,0,.06-.04.1-.1.1.1-.2.2-.1.4.1Z"/>
      <path id="path234" class="cls-25" d="m215.3,402.76h2.2l.2-.1.3-.1h.3l.3-.1.3-.1.3-.1.3-.1.3-.1.3-.1.3-.1.3-.1.3-.2.3-.2.3-.1.2-.2.2-.2.2-.2c3.1-2.4,2.9-4.9,2.9-4.9-2.32,1.01-4.78,1.69-7.3,2,.03-.15.09-.29.2-.4,3-.55,5.88-1.64,8.5-3.2.39-.28.75-.58,1.1-.9v.1c1.46,3.15,2.63,6.43,3.5,9.8.4,1.68.7,3.38.9,5.1l-14.1-1.6c1.43-1.09,2.37-2.71,2.6-4.5-4.2,1.7-5.2.6-5.2.6Z"/>
      <path id="path236" class="cls-25" d="m244.2,429.96l-.5,1.2-.5,1.2-.5,1.2-.6,1.2-.6,1.2-.7,1.2-.7,1.1-.7,1.1-.8,1.1-.8,1.1-.9,1.1-.9,1-.9,1.1-1,1-1,1-1,1c-3.55,1.33-7.24,2.27-11,2.8,3.37-4.71,6.22-9.77,8.5-15.1,5.09-1.17,10-3.02,14.6-5.5Z"/>
      <path id="path238" class="cls-25" d="m230.2,433.76l.5-1.4.5-1.4.4-1.4.4-1.4.4-1.4.3-1.4.3-1.4.2-1.4.2-1.4.1-1.4.1-1.4.1-1.4v-4.2l-.1-1.4h13.6c.23,5.49-.52,10.97-2.2,16.2-4.59,2.8-9.58,4.89-14.8,6.2Z"/>
      <path id="path240" class="cls-25" d="m239.7,376.96l1,.9,1,.9.9.9.9.9.9,1,.9,1,.8,1,.8,1,.8,1.1.7,1,.7,1.1.7,1.1.6,1.1.6,1.1.6,1.2.5,1.2c-.94,2.78-2.59,5.26-4.8,7.2-.4-1.4-.8-2.7-1.3-4-2.21-5.67-5.58-10.81-9.9-15.1,1.2-.85,2.25-1.9,3.1-3.1.21-.48.38-.99.5-1.5Z"/>
      <path id="path242" class="cls-25" d="m255.7,410.06l-6.9-.6c-.16-2.36-.53-4.7-1.1-7,2.22-1.81,3.99-4.1,5.2-6.7,1.68,4.59,2.62,9.42,2.8,14.3Z"/>
      <path id="path244" class="cls-25" d="m209.3,368.06l-.2-.1-.1-.1-.2-.1-.1-.1-.1-.1-.1-.1-.1-.1-.1-.1-.1-.1-.1-.1-.1-.1-.1-.1-.1-.1-.1-.1-.1-.1-.1-.1c.8-.08,1.6-.12,2.4-.1l-.6,1.7Z"/>
      <path id="path246" class="cls-25" d="m206.9,456.36l-.4-.4-.4-.4-.4-.5-.4-.4-.4-.4-.4-.4-.7-.9,5,.3.3,3.4c-.6-.1-1.4-.2-2.2-.3Z"/>
      <path id="path248" class="cls-25" d="m199,455.06l-.8-.5-.8-.5-.8-.5-.8-.6-.8-.5-.8-.5-.7-.6-.7-.6c2.99.8,6.03,1.4,9.1,1.8.9,1.2,1.8,2.4,2.8,3.5-1.93-.12-3.84-.46-5.7-1Z"/>
      <path id="path250" class="cls-25" d="m183,447.06l.7.4.7.4.7.3.7.3.7.3.7.3.8.3.8.3c1.3,1.1,2.6,2.2,4.1,3.3-3.56-1.49-6.89-3.48-9.9-5.9Z"/>
      <path id="path252" class="cls-25" d="m174.4,438.46h0c-3.88-5.2-6.61-11.17-8-17.5,2.34,3.13,5.26,5.77,8.6,7.8,2.29,6.7,5.97,12.83,10.8,18-4.38-1.87-8.28-4.7-11.4-8.3Z"/>
      <path id="path254" class="cls-25" d="m165.7,416.56l-.1-.6-.1-.6-.1-.7v-3.2h7.1c-.19,5.02.38,10.05,1.7,14.9-3.59-2.52-6.51-5.89-8.5-9.8Z"/>
      <path id="path256" class="cls-25" d="m168.3,395.46l.2.5.2.5.2.4.3.5.3.4.3.4.3.4.3.4.3.4.4.4.4.4.4.4.4.4.4.4.4.4.4.4c-.52,2.31-.89,4.65-1.1,7l-7.2.6c.34-4.89,1.38-9.71,3.1-14.3Z"/>
      <path id="path258" class="cls-25" d="m185,374.16h0v1.6c.07,1.67.79,3.25,2,4.4-4.96,4.48-8.8,10.06-11.2,16.3-.5,1.3-.9,2.6-1.3,4-2.29-1.91-4.01-4.39-5-7.2,3.36-7.64,8.71-14.24,15.5-19.1Z"/>
      <path id="path260" class="cls-25" d="m188.1,372.36l1.1-.2,1.1-.2,1.1-.2,1.1-.2,1.1-.2,1.1-.2,1.1-.1,1-.1,1-.1h1l1-.1h4.8c-6.15,1.58-11.88,4.48-16.8,8.5-.96-.88-1.53-2.1-1.6-3.4.14-1.37.82-2.64,1.9-3.5Z"/>
      <path id="path262" class="cls-25" d="m208.3,380.26l-.3.1-.3.1-.3.1-.3.1-.3.1-.3.2-.3.1-.3.1-.3.2-.3.1-.3.1-.2.2-.2.1-.2.2-.2.1-.2.2-.3.1-.2.2-.2.2-.2.1-.2.2-.2.2-.4.3-.3.3-.3.3-.3.3-.3.4c-.73-.17-1.46-.31-2.2-.4,2.89-4.23,6.2-8.15,9.9-11.7l-.5,7.4Z"/>
      <path id="path264" class="cls-25" d="m205.9,416.26l1.7,19.9c-4.84-.2-9.66-.8-14.4-1.8-3-7.24-4.3-15.08-3.8-22.9h4.9c4.87,1.03,9.83,1.57,14.8,1.6l-3.2,3.2Z"/>
      <path id="path266" class="cls-25" d="m193.9,436.06l.8.2.8.1.8.2.8.2.8.1.8.1,1.7.2,1.7.2,1.8.2,1.8.1,1.8.1,1.2,13.8c-2.1,0-4.2-.2-6.2-.4-3.29-4.78-6.17-9.83-8.6-15.1Z"/>
      <path id="path268" class="cls-25" d="m192,435.66l.4.9.4,1,.4.9.4.9.5.9.5,1,.5.9.5.9.5.9.6,1,.6.9.6.9.6.9.6.9.6,1,.7.9c-3.68-.54-7.3-1.45-10.8-2.7-5.51-5.03-9.78-11.26-12.5-18.2,4.6,2.84,9.63,4.9,14.9,6.1Z"/>
      <path id="path270" class="cls-25" d="m187.8,411.36l-.1,1.4v4.2l.1,1.4.1,1.4.2,1.4.2,1.4.2,1.4.3,1.4.3,1.4.4,1.4.4,1.4.4,1.4.5,1.4.5,1.4c-5.24-1.27-10.27-3.33-14.9-6.1-1.67-5.26-2.42-10.78-2.2-16.3h13.6Z"/>
      <path id="path272" class="cls-25" d="m184.2,408.36l-9.9.9c.2-1.95.5-3.88.9-5.8,2.76,2.04,5.79,3.69,9,4.9Z"/>
      <path id="path274" class="cls-25" d="m196.4,385.36l-.6.9-.6.9-.6,1-.5,1-.5,1-.5,1-.5,1.1-.5,1.1-.5,1.1-.4,1.1-.4,1.1-.4,1.1-.4,1.2-.3,1.1-.3,1.2-.3,1.2c-.44,1.85-.77,3.72-1,5.6h0c-4.52-1.39-8.78-3.51-12.6-6.3.41-1.53.91-3.03,1.5-4.5,2.34-6.02,6.08-11.4,10.9-15.7,2.59,1.75,5.47,3.03,8.5,3.8Z"/>
      <path id="path276" class="cls-25" d="m197.3,383.86l-.6-.2-.6-.2-.6-.2-.6-.2-.6-.2-.6-.2-.6-.2-.5-.2-.5-.2-.5-.2-.5-.2-.4-.3-.4-.2-.4-.3-.4-.2-.4-.3c5.37-4.36,11.72-7.34,18.5-8.7-3.83,3.71-7.28,7.8-10.3,12.2Z"/>
      <path id="path278" class="cls-25" d="m200.5,406.76h-3.8l-6.9.6c.19-1.68.49-3.35.9-5,1.51-6.02,3.98-11.76,7.3-17l2.3.5c-3.6,8.1,7.5,18.5.2,20.9Z"/>
      <path id="path280" class="cls-25" d="m204.5,366.66h.4l.1.1h.1l.1.1h.1l.1.1h.1l.2.2.2.2.2.2.3.2.3.2.3.2.3.2.3.2.3.2.3.2.3.2c-5.24-.5-10.52-.3-15.7.6,3.71-1.66,7.66-2.71,11.7-3.1Z"/>
      <polygon id="polygon284" class="cls-27" points="211.1 355.26 213.2 378.86 210.8 379.56 210.8 355.06 211.1 355.26"/>
      <polygon id="polygon286" class="cls-27" points="205.9 416.26 154.7 411.76 154.5 411.36 267 411.36 266.8 411.76 215.6 416.26 211 467.56 210.7 467.66 210.7 411.36 205.9 416.26"/>
      <path id="path288" class="cls-27" d="m220.2,382.86h0s-12.7-.3-16.1,9.2v.6c.07.3.1.6.1.9,0,0,1.4-7.7,13.8-9.2.89-.22,1.67-.75,2.2-1.5Z"/>
      <path id="path290" class="cls-27" d="m217.1,387.76h0s-9.7.1-11.9,7.5v.4c.02.24.05.47.1.7,0,0,1.1-5.9,10.2-7.3.64-.29,1.19-.73,1.6-1.3Z"/>
      <path id="path292" class="cls-27" d="m214.4,392.56h0s-7,.7-8.2,6.1v.3l.1.5s.7-4.2,6.7-5.7c.64-.14,1.17-.59,1.4-1.2Z"/>
    </g>
    <g>
      <path class="cls-23" d="m130.03,468.76l-.69-1.06c.3-.28.53-.59.68-.91.16-.32.25-.65.28-.99.03-.33,0-.67-.08-.99-.08-.32-.22-.63-.41-.92-.34-.53-.8-.91-1.38-1.14-.58-.23-1.24-.29-1.98-.16-.75.13-1.54.46-2.38,1.01-.84.55-1.48,1.14-1.89,1.77-.42.63-.64,1.25-.66,1.88-.02.62.14,1.2.48,1.73.19.29.41.54.68.75.26.21.55.37.87.47.32.11.66.15,1.02.14.36-.01.73-.1,1.11-.25l.69,1.06c-.55.24-1.09.39-1.62.43-.53.05-1.04,0-1.51-.13-.48-.13-.91-.35-1.31-.64-.39-.29-.73-.66-1.02-1.1-.48-.74-.71-1.54-.68-2.38s.31-1.68.84-2.49c.54-.82,1.32-1.56,2.35-2.23,1.03-.67,2.03-1.08,2.99-1.23.96-.16,1.84-.07,2.62.24.78.31,1.42.85,1.9,1.59.29.44.48.9.59,1.38.11.48.13.97.06,1.46-.07.49-.24.97-.49,1.43-.26.46-.61.9-1.06,1.31Z"/>
      <path class="cls-23" d="m135.04,478.52c-.95.77-1.9,1.29-2.84,1.55-.94.26-1.82.27-2.63.04-.81-.23-1.5-.69-2.06-1.38-.56-.69-.87-1.45-.93-2.3-.06-.84.13-1.7.57-2.57.44-.87,1.14-1.7,2.09-2.47.95-.77,1.9-1.29,2.84-1.55.94-.26,1.82-.27,2.63-.04.81.23,1.5.69,2.06,1.38.56.69.87,1.45.93,2.3.06.84-.13,1.7-.57,2.57-.44.87-1.14,1.69-2.09,2.47Zm-.77-.95c.78-.64,1.35-1.29,1.69-1.96.35-.67.5-1.31.46-1.94-.05-.62-.27-1.17-.67-1.66-.4-.49-.9-.82-1.49-.99-.6-.17-1.26-.15-1.99.05-.73.21-1.48.63-2.26,1.26-.78.64-1.35,1.29-1.7,1.96-.35.67-.5,1.32-.45,1.94.05.62.27,1.18.67,1.66.4.49.9.82,1.49.99.6.17,1.26.15,1.99-.05.73-.2,1.48-.63,2.26-1.26Z"/>
      <path class="cls-23" d="m146.54,481.84l-8.18,8.27-.87-.86,2.39-10.49-.07-.07-6.42,6.5-.9-.89,8.18-8.27.87.86-2.39,10.52.07.07,6.44-6.51.88.87Z"/>
      <path class="cls-23" d="m140.75,492.19l7.37-9.01,4.83,3.95-.79.97-3.86-3.15-2.49,3.04,3.49,2.86-.79.97-3.49-2.86-3.29,4.03-.98-.8Z"/>
      <path class="cls-23" d="m155.53,488.96l-6.81,9.44-1.02-.74,6.81-9.44,1.02.74Z"/>
      <path class="cls-23" d="m151.14,500.14l6.18-9.86,2.98,1.87c.69.43,1.17.92,1.45,1.46.28.54.38,1.1.31,1.69-.07.59-.29,1.17-.66,1.75-.36.58-.79,1.03-1.29,1.35-.5.32-1.04.46-1.64.44-.6-.02-1.24-.25-1.92-.67l-2.41-1.51.67-1.08,2.38,1.49c.47.3.9.46,1.28.48.38.03.73-.06,1.04-.26.31-.2.59-.5.83-.89.25-.4.4-.78.45-1.16.05-.38-.01-.74-.2-1.08s-.52-.67-1-.96l-1.88-1.18-5.52,8.8-1.07-.67Zm6.93-1.83l-.61,5.79-1.24-.78.64-5.77,1.21.75Z"/>
      <path class="cls-23" d="m164.66,494.86l1.36.65-1.01,10.24.11.05,7.38-7.16,1.36.65-5.06,10.48-1.06-.51,3.84-7.96-.09-.04-6.77,6.55-1.02-.5.91-9.38-.09-.04-3.84,7.96-1.06-.51,5.06-10.48Z"/>
      <path class="cls-23" d="m172.32,511.12l-1.25-.44,7.45-9.72,1.23.43-.23,12.25-1.25-.44.3-10.27-.08-.03-6.17,8.22Zm1.96-4.13l5.03,1.76-.41,1.18-5.03-1.76.41-1.18Z"/>
      <path class="cls-23" d="m195.71,509.12l-1.24-.25c0-.41-.05-.79-.17-1.12-.12-.34-.29-.63-.51-.89-.22-.26-.47-.47-.76-.63-.29-.17-.61-.28-.95-.35-.62-.12-1.21-.06-1.78.19-.57.25-1.07.69-1.5,1.31-.43.62-.74,1.43-.94,2.42-.2.99-.21,1.85-.05,2.59.16.74.46,1.33.89,1.78.43.45.96.73,1.57.86.34.07.67.08,1.01.04.33-.04.65-.14.95-.3.3-.16.57-.37.81-.63.24-.27.44-.59.59-.97l1.24.24c-.21.57-.48,1.05-.82,1.47-.34.41-.72.74-1.15.99-.43.25-.89.41-1.37.49-.49.08-.99.06-1.5-.04-.87-.17-1.6-.56-2.18-1.17-.58-.61-.98-1.39-1.2-2.34-.22-.96-.2-2.03.03-3.24.24-1.2.64-2.21,1.2-3,.56-.8,1.23-1.37,2-1.71.77-.34,1.59-.43,2.47-.25.52.1.98.28,1.4.54.42.26.78.58,1.08.98.3.39.53.84.69,1.35.16.51.22,1.06.2,1.67Z"/>
      <path class="cls-23" d="m206.2,512.34c-.11,1.22-.4,2.26-.88,3.12-.47.86-1.08,1.49-1.81,1.92-.73.42-1.54.59-2.42.51-.89-.08-1.65-.39-2.3-.93-.64-.54-1.13-1.28-1.44-2.2-.32-.92-.42-2-.31-3.22s.4-2.26.87-3.12c.47-.86,1.08-1.49,1.81-1.92.73-.42,1.54-.59,2.42-.51.88.08,1.65.39,2.29.93.65.54,1.13,1.28,1.44,2.21.31.92.42,2,.31,3.22Zm-1.22-.11c.09-1,.02-1.86-.22-2.58-.24-.72-.59-1.28-1.07-1.68s-1.03-.63-1.66-.68-1.21.07-1.75.38c-.54.31-.99.8-1.35,1.46-.36.66-.58,1.5-.67,2.5-.09,1-.02,1.86.22,2.58.24.72.6,1.28,1.07,1.68.48.4,1.03.63,1.66.68.63.06,1.21-.07,1.75-.38.54-.31.99-.8,1.35-1.46.36-.66.58-1.5.67-2.5Z"/>
      <path class="cls-23" d="m216.59,506.41l.22,11.63-1.22.02-5.85-9.03h-.1s.17,9.14.17,9.14l-1.26.03-.22-11.63,1.22-.02,5.87,9.05h.1s-.18-9.16-.18-9.16l1.24-.02Z"/>
      <path class="cls-23" d="m222.12,507.15l-.2-1.23,7.71-1.23.2,1.24-3.23.52,1.64,10.25-1.25.2-1.64-10.26-3.23.52Z"/>
      <path class="cls-23" d="m237.72,502.64l1.22-.32,1.96,7.45c.2.77.22,1.5.06,2.18-.17.69-.49,1.28-.99,1.78-.5.5-1.14.85-1.93,1.06-.79.21-1.52.22-2.2.02-.68-.19-1.26-.54-1.74-1.06-.48-.52-.82-1.16-1.03-1.93l-1.96-7.45,1.22-.32,1.93,7.34c.14.55.38,1.01.71,1.38.33.37.73.62,1.19.76.47.14.98.13,1.54-.02.56-.15,1.01-.4,1.35-.75.34-.35.56-.77.66-1.25.1-.48.08-1-.06-1.55l-1.93-7.34Z"/>
      <path class="cls-23" d="m249.43,510.94l-1.22.51-1.01-12.21,1.2-.51,8.05,9.23-1.22.51-6.68-7.81-.08.03.95,10.23Zm-1.32-4.38l4.91-2.07.49,1.15-4.91,2.07-.49-1.15Z"/>
      <path class="cls-23" d="m258.5,506.92l-5.5-10.26,5.54-2.97.59,1.1-4.43,2.37,1.86,3.47,4.14-2.22.59,1.1-4.14,2.22,1.87,3.49,4.5-2.41.59,1.1-5.61,3.01Z"/>
      <path class="cls-23" d="m266.53,502.48l-6.39-9.73,2.94-1.93c.68-.45,1.32-.68,1.93-.71.61-.03,1.16.11,1.67.43.5.31.94.75,1.32,1.33.38.57.61,1.15.69,1.73.08.58-.01,1.14-.28,1.68-.27.54-.74,1.03-1.41,1.47l-2.38,1.56-.7-1.06,2.34-1.54c.46-.3.79-.63.97-.96.18-.34.25-.69.19-1.06-.05-.36-.21-.74-.47-1.13-.26-.39-.54-.69-.87-.89-.32-.21-.68-.3-1.07-.27-.39.03-.82.2-1.29.5l-1.85,1.22,5.7,8.68-1.05.69Zm1.23-7.06l5.01,2.96-1.22.8-4.98-2.99,1.19-.78Z"/>
      <path class="cls-23" d="m277.87,486.9c.77.95,1.29,1.9,1.54,2.84.25.94.27,1.82.04,2.63-.23.81-.69,1.5-1.38,2.06-.69.56-1.45.87-2.3.93-.84.06-1.7-.13-2.57-.58-.87-.44-1.7-1.14-2.47-2.1-.77-.95-1.29-1.9-1.54-2.85-.26-.94-.27-1.82-.04-2.63.23-.81.69-1.5,1.38-2.06.69-.56,1.46-.87,2.3-.93.84-.06,1.7.13,2.57.58.87.44,1.69,1.14,2.47,2.1Zm-.95.77c-.64-.78-1.29-1.35-1.96-1.7-.67-.35-1.31-.5-1.93-.46-.62.05-1.18.27-1.67.66-.49.4-.82.89-.99,1.49-.17.6-.16,1.26.05,1.99.21.73.63,1.48,1.26,2.26.64.78,1.29,1.35,1.96,1.7.67.35,1.32.5,1.94.46s1.17-.27,1.66-.66c.49-.4.82-.9.99-1.49.17-.6.16-1.26-.05-1.99-.2-.73-.62-1.48-1.26-2.26Z"/>
      <path class="cls-23" d="m283.55,489.5l-8.15-8.3.9-.88,7.28,7.41,3.45-3.39.88.89-4.35,4.27Z"/>
      <path class="cls-23" d="m280.02,474.82l-1.14-2.68.94-1.05.91,2.94-.71.79Zm1.67-.09l8.67,7.76-.84.94-8.67-7.76.84-.94Z"/>
      <path class="cls-23" d="m288.31,466.61l9.16,7.17-.75.96-10.69-1.17-.06.08,7.19,5.63-.78.99-9.16-7.17.75-.96,10.72,1.16.06-.08-7.21-5.65.76-.98Z"/>
      <path class="cls-23" d="m299.29,471.13l-9.81-6.25,3.38-5.3,1.05.67-2.7,4.24,3.31,2.11,2.52-3.96,1.05.67-2.52,3.96,3.34,2.13,2.74-4.3,1.05.67-3.42,5.37Z"/>
      <path class="cls-23" d="m304.33,462.93l-.6,1.18-8.6-8.73.6-1.16,12.09,1.93-.6,1.18-10.13-1.72-.04.07,7.29,7.25Zm-3.82-2.51l2.44-4.74,1.11.57-2.44,4.73-1.11-.57Z"/>
    </g>
  </g>
  <g>
    <g>
      <polygon class="cls-13" points="138.9 212.63 162.7 212.63 162.7 203.68 130.3 203.68 129.96 203.67 129.96 235.55 138.65 235.55 138.65 212.76 138.9 212.63 138.9 212.63"/>
      <path class="cls-13" d="m129.96,172.39h65.05s.14-.07.14-.07c14.04.13,25.38,11.51,25.38,25.54s-11.38,25.44-25.45,25.54h-.22s-15.91-.03-15.91-.03v-32.24h8.98v23.47l.75-.02h6.54c9.09-.19,16.4-7.59,16.4-16.69s-7.39-16.58-16.54-16.69h-56.21s-.22,0-.22,0v9.92s23.99,0,23.99,0l.02,8.95h-32.6s-.1-.01-.1-.01v-27.68h0Z"/>
      <polygon class="cls-13" points="260.23 160.66 299.53 226.9 305.14 217.6 270.32 160.66 260.23 160.66 260.23 160.66"/>
      <polygon class="cls-13" points="219.91 235.55 260.2 168.42 293.44 223.42 247.63 223.42 247.63 214.84 277.37 214.84 260.2 186.2 232.07 235.55 219.91 235.55 219.91 235.55"/>
      <polygon class="cls-13" points="299.53 226.9 247.63 226.88 247.63 235.55 294.43 235.54 294.5 235.33 299.53 226.9 299.53 226.9"/>
      <path class="cls-13" d="m166.22,226.61l.04-35.49h8.98v35.56s19.63,0,19.63,0h.21c15.9-.1,28.76-12.99,28.76-28.86s-12.82-28.72-28.69-28.87h-.28s-68.12,0-68.12,0v66.59h-8.69v-75.24s76.81,0,76.81,0h.35c18.27.16,33.43,12.85,36.71,30.15l18.23-29.8h10.08l-31.27,52.37-3.03,5.12c-6.72,9.86-17.89,17.19-30.72,17.31h-.35s-28.65,0-28.65,0v-8.85h0Z"/>
    </g>
    <g>
      <path class="cls-25" d="m121.77,258.82h-3.44l5.24-16.96h4.13l5.23,16.96h-3.44l-3.8-13.09h-.12l-3.81,13.09Zm-.21-6.67h8.12v2.8h-8.12v-2.8Z"/>
      <path class="cls-25" d="m145.19,258.82v-16.96h5.99c1.15,0,2.13.24,2.94.73.81.49,1.43,1.16,1.86,2.03s.64,1.86.64,2.99-.22,2.12-.65,2.98c-.43.86-1.06,1.53-1.89,2.01-.82.48-1.82.72-2.98.72h-3.82v-2.87h3.3c.62,0,1.13-.12,1.53-.36s.7-.57.9-1c.2-.43.3-.92.3-1.48s-.1-1.06-.3-1.48c-.2-.42-.5-.75-.91-.99s-.92-.35-1.54-.35h-2.16v14.03h-3.21Z"/>
      <path class="cls-25" d="m169.13,258.82v-16.96h5.99c1.15,0,2.13.24,2.94.73.81.49,1.43,1.16,1.86,2.03s.64,1.86.64,2.99-.22,2.12-.65,2.98c-.43.86-1.06,1.53-1.89,2.01-.82.48-1.82.72-2.98.72h-3.82v-2.87h3.3c.62,0,1.13-.12,1.53-.36s.7-.57.9-1c.2-.43.3-.92.3-1.48s-.1-1.06-.3-1.48c-.2-.42-.5-.75-.91-.99s-.92-.35-1.54-.35h-2.16v14.03h-3.21Z"/>
      <path class="cls-25" d="m193.08,258.82v-16.96h5.99c1.15,0,2.12.23,2.94.68s1.43,1.1,1.86,1.93c.43.83.64,1.81.64,2.93s-.22,2.09-.65,2.9c-.43.81-1.06,1.43-1.89,1.86-.82.43-1.82.65-2.98.65h-4.01v-2.88h3.49c.61,0,1.12-.09,1.53-.28.4-.19.71-.47.91-.84.2-.38.3-.84.3-1.4s-.1-1.04-.3-1.42c-.2-.39-.5-.68-.91-.88-.41-.2-.92-.3-1.54-.3h-2.16v14.03h-3.21Zm8.19-7.72l3.77,7.72h-3.54l-3.69-7.72h3.46Z"/>
      <path class="cls-25" d="m231.15,250.34c0,1.85-.31,3.42-.94,4.72-.63,1.3-1.47,2.29-2.55,2.97-1.07.68-2.28,1.02-3.62,1.02s-2.56-.34-3.63-1.03c-1.07-.68-1.92-1.68-2.54-2.97s-.93-2.87-.93-4.71.31-3.42.93-4.72c.62-1.3,1.47-2.29,2.54-2.97,1.07-.68,2.28-1.02,3.63-1.02s2.55.34,3.62,1.02c1.07.68,1.92,1.67,2.55,2.97.62,1.3.94,2.87.94,4.72Zm-3.25,0c0-1.2-.16-2.21-.48-3.03-.32-.82-.77-1.45-1.34-1.87-.58-.43-1.25-.64-2.03-.64s-1.45.21-2.03.64c-.58.42-1.03,1.05-1.34,1.87-.32.82-.48,1.83-.48,3.03s.16,2.21.48,3.03c.32.82.77,1.45,1.34,1.87.58.43,1.25.64,2.03.64s1.45-.21,2.03-.64c.58-.42,1.03-1.05,1.34-1.87.32-.82.48-1.83.48-3.03Z"/>
      <path class="cls-25" d="m245.84,241.86l3.67,12.89h.14l3.67-12.89h3.56l-5.23,16.96h-4.13l-5.24-16.96h3.56Z"/>
      <path class="cls-25" d="m269.13,258.82v-16.96h10.22v2.96h-7.02v4.04h6.49v2.96h-6.49v4.05h7.05v2.96h-10.25Z"/>
      <path class="cls-25" d="m297.72,258.82h-5.38v-16.96h5.42c1.53,0,2.84.34,3.94,1.01,1.1.68,1.95,1.65,2.54,2.91.6,1.26.89,2.78.89,4.54s-.3,3.29-.89,4.56c-.59,1.27-1.45,2.24-2.56,2.92-1.11.68-2.43,1.02-3.98,1.02Zm-2.17-3.07h2.04c.95,0,1.75-.19,2.4-.57.65-.38,1.14-.97,1.47-1.76.33-.8.49-1.83.49-3.09s-.16-2.28-.49-3.07c-.33-.79-.82-1.38-1.46-1.76-.65-.38-1.44-.56-2.39-.56h-2.05v10.82Z"/>
    </g>
  </g>
</svg>