<?xml version="1.0" encoding="utf-8"?>
<!-- Generator: Adobe Illustrator 28.0.0, SVG Export Plug-In . SVG Version: 6.00 Build 0)  -->
<svg version="1.1" id="Layer_1" xmlns="http://www.w3.org/2000/svg" xmlns:xlink="http://www.w3.org/1999/xlink" x="0px" y="0px"
	 viewBox="0 0 1024 1024" style="enable-background:new 0 0 1024 1024;" xml:space="preserve">
<style type="text/css">
	.st0{fill:url(#SVGID_1_);}
	.st1{fill:url(#SVGID_00000118390387181088276900000015948778874586294702_);}
	.st2{fill:url(#SVGID_00000139269550114491486540000014985060387003996862_);}
	.st3{fill:url(#SVGID_00000003106232705230512700000008881965636276955277_);}
	.st4{fill:url(#SVGID_00000035494918368624042690000001204391654533384338_);}
	.st5{fill:url(#SVGID_00000092445584430461800990000014277785471831776647_);}
	.st6{fill:#243F8B;}
	.st7{fill:#ABBCD6;}
	.st8{fill:#FFFFFF;}
	.st9{fill:url(#SVGID_00000171687214511856614540000002470148951992211874_);}
	.st10{fill:url(#SVGID_00000076573753088815281500000016071421396334573711_);}
	.st11{fill:url(#SVGID_00000064353691020399839160000002111981826055886514_);}
	.st12{fill:url(#SVGID_00000003102894535536690420000014935111404441932719_);}
	.st13{fill:url(#SVGID_00000028297868600048927560000004078391300245836184_);}
	.st14{fill:url(#SVGID_00000124160373172377957210000003889174684554663816_);}
	.st15{fill:url(#SVGID_00000120548863171697524720000002532705869997187476_);}
	.st16{fill:url(#SVGID_00000042727750123617333600000000773857270874360222_);}
	.st17{fill:url(#SVGID_00000022544598035272355030000010585390583985230483_);}
	.st18{fill:url(#SVGID_00000059286550768100660460000011808086991715331503_);}
	.st19{fill:url(#SVGID_00000018952728563516195360000001111890282152264604_);}
	.st20{fill:url(#SVGID_00000122723002719783516820000004594714544501000616_);}
	.st21{fill:url(#SVGID_00000111175942244983469040000012667839266343427976_);}
	.st22{fill:url(#SVGID_00000075122787220183507990000005980547698685845691_);}
	.st23{fill:#24408B;}
</style>
<g>
	
		<linearGradient id="SVGID_1_" gradientUnits="userSpaceOnUse" x1="127.3828" y1="695.151" x2="279.8363" y2="959.197" gradientTransform="matrix(1 0 0 -1 0 1024)">
		<stop  offset="0" style="stop-color:#BCBEC0"/>
		<stop  offset="0.16" style="stop-color:#939598"/>
		<stop  offset="0.36" style="stop-color:#E6E7E8"/>
		<stop  offset="0.36" style="stop-color:#E4E5E6"/>
		<stop  offset="0.42" style="stop-color:#B9BBBC"/>
		<stop  offset="0.46" style="stop-color:#A9ABAD"/>
		<stop  offset="0.62" style="stop-color:#E6E7E8"/>
		<stop  offset="0.72" style="stop-color:#E6E7E8"/>
		<stop  offset="0.86" style="stop-color:#BABCBE"/>
		<stop  offset="0.94" style="stop-color:#A5A7AA"/>
		<stop  offset="1" style="stop-color:#E6E7E8"/>
	</linearGradient>
	<path class="st0" d="M162.6,344.8c35,27,42.6,29.2,48.4,29.2s13.5-2.2,48.4-29.2c34.9-26.9,58.6-56.3,63.3-70.2
		c0.4-1.2,3.1-12.8,3.1-18.6V105.3c0-11.6-3.5-15.6-11.7-20.7c-9-5.6-71.8-11-103.1-11s-94.1,5.4-103.1,11
		c-8.2,5.1-11.7,9.1-11.7,20.7v150.6c0,5.8,2.7,17.4,3.1,18.6C104,288.5,127.7,317.8,162.6,344.8L162.6,344.8z"/>
	
		<linearGradient id="SVGID_00000078029131599279761350000003785460917242181556_" gradientUnits="userSpaceOnUse" x1="129.9896" y1="699.6664" x2="277.2163" y2="954.6808" gradientTransform="matrix(1 0 0 -1 0 1024)">
		<stop  offset="0" style="stop-color:#ACADAF"/>
		<stop  offset="0" style="stop-color:#B1B2B4"/>
		<stop  offset="3.000000e-02" style="stop-color:#C4C5C6"/>
		<stop  offset="5.000000e-02" style="stop-color:#D0D1D1"/>
		<stop  offset="8.000000e-02" style="stop-color:#D4D5D5"/>
		<stop  offset="0.13" style="stop-color:#E1E1E2"/>
		<stop  offset="0.21" style="stop-color:#EDECED"/>
		<stop  offset="0.28" style="stop-color:#F1F0F1"/>
		<stop  offset="0.4" style="stop-color:#E8E7E8"/>
		<stop  offset="0.58" style="stop-color:#D0D1D2"/>
		<stop  offset="0.69" style="stop-color:#C0C1C3"/>
		<stop  offset="0.84" style="stop-color:#DEDDDF"/>
		<stop  offset="0.95" style="stop-color:#F1F0F1"/>
		<stop  offset="1" style="stop-color:#969799"/>
	</linearGradient>
	<path style="fill:url(#SVGID_00000078029131599279761350000003785460917242181556_);" d="M211,368.7c-4.3,0-11.6-2.2-45.2-28.1
		c-36.2-27.9-57.8-56.4-61.5-67.7c-0.4-1.4-2.8-12-2.8-17V105.3c0-9.7,2.4-12.1,9.2-16.3c7-4.3,65.2-10.2,100.4-10.2
		s93.4,5.9,100.4,10.2c6.8,4.2,9.2,6.5,9.2,16.3v150.6c0,5-2.4,15.6-2.8,17c-3.8,11.3-25.3,39.8-61.5,67.7
		C222.7,366.6,215.3,368.8,211,368.7L211,368.7z"/>
	
		<linearGradient id="SVGID_00000179636250756412136520000002164116241648493744_" gradientUnits="userSpaceOnUse" x1="102.72" y1="800.2114" x2="319.35" y2="800.2114" gradientTransform="matrix(1 0 0 -1 0 1024)">
		<stop  offset="0" style="stop-color:#BCBEC0"/>
		<stop  offset="0.16" style="stop-color:#939598"/>
		<stop  offset="0.36" style="stop-color:#E6E7E8"/>
		<stop  offset="0.36" style="stop-color:#E4E5E6"/>
		<stop  offset="0.42" style="stop-color:#B9BBBC"/>
		<stop  offset="0.46" style="stop-color:#A9ABAD"/>
		<stop  offset="0.62" style="stop-color:#E6E7E8"/>
		<stop  offset="0.72" style="stop-color:#E6E7E8"/>
		<stop  offset="0.86" style="stop-color:#BABCBE"/>
		<stop  offset="0.94" style="stop-color:#A5A7AA"/>
		<stop  offset="1" style="stop-color:#E6E7E8"/>
	</linearGradient>
	<path style="fill:url(#SVGID_00000179636250756412136520000002164116241648493744_);" d="M211,367.4c-4.4,0-12.8-3.4-44.5-27.8
		c-36-27.8-57.4-56-61.1-67.1c-0.4-1.3-2.8-11.8-2.8-16.6V105.3c0-9.4,2.2-11.2,8.6-15.2c6.2-3.8,62.9-10,99.7-10s93.5,6.2,99.7,10
		c6.4,3.9,8.6,5.8,8.6,15.2v150.6c0,4.7-2.4,15.3-2.8,16.6c-3.7,11.1-25.1,39.3-61.1,67C223.8,364.1,215.4,367.4,211,367.4
		L211,367.4z"/>
	
		<linearGradient id="SVGID_00000112590950111465726480000004609491467418798264_" gradientUnits="userSpaceOnUse" x1="137.241" y1="712.0041" x2="270.1487" y2="942.2176" gradientTransform="matrix(1 0 0 -1 0 1024)">
		<stop  offset="0" style="stop-color:#969799"/>
		<stop  offset="5.000000e-02" style="stop-color:#F1F0F1"/>
		<stop  offset="0.16" style="stop-color:#DEDDDF"/>
		<stop  offset="0.31" style="stop-color:#C0C1C3"/>
		<stop  offset="0.42" style="stop-color:#D0D1D2"/>
		<stop  offset="0.6" style="stop-color:#E8E7E8"/>
		<stop  offset="0.72" style="stop-color:#F1F0F1"/>
		<stop  offset="0.79" style="stop-color:#EDECED"/>
		<stop  offset="0.87" style="stop-color:#E1E1E2"/>
		<stop  offset="0.92" style="stop-color:#D4D5D5"/>
		<stop  offset="0.95" style="stop-color:#D0D1D1"/>
		<stop  offset="0.97" style="stop-color:#C4C5C6"/>
		<stop  offset="0.99" style="stop-color:#B1B2B4"/>
		<stop  offset="1" style="stop-color:#ACADAF"/>
	</linearGradient>
	<path style="fill:url(#SVGID_00000112590950111465726480000004609491467418798264_);" d="M210,353.8c-3.3-1.5-12.4-6.7-35.4-24.5
		c-35.5-27.4-53.7-53-56.6-60.5l-0.1-0.1l0-0.2c-0.6-2.5-2.1-10-2.2-12.5V105.3c0-0.5,0-0.9,0-1.2l0-1.4l1.5-0.9l0.6-0.2
		c9.3-2.8,58.3-8.4,93.2-8.4s83.9,5.7,93.2,8.4l0.4,0.1l1.5,0.9l0.2,1.5c0,0.3,0,0.8,0,1.2v150.6c0,2.6-1.5,10.1-2.2,12.6l0,0.1
		l0,0.1c-2.8,7.5-21,33-56.5,60.5c-23.1,17.8-32.1,23-35.4,24.5l-1.1,0.5L210,353.8L210,353.8z"/>
	
		<linearGradient id="SVGID_00000178200685592111100730000007448196266984847023_" gradientUnits="userSpaceOnUse" x1="138.6796" y1="714.1756" x2="268.9811" y2="939.8582" gradientTransform="matrix(1 0 0 -1 0 1024)">
		<stop  offset="0" style="stop-color:#ACADAF"/>
		<stop  offset="0" style="stop-color:#B1B2B4"/>
		<stop  offset="3.000000e-02" style="stop-color:#C4C5C6"/>
		<stop  offset="5.000000e-02" style="stop-color:#D0D1D1"/>
		<stop  offset="8.000000e-02" style="stop-color:#D4D5D5"/>
		<stop  offset="0.13" style="stop-color:#E1E1E2"/>
		<stop  offset="0.21" style="stop-color:#EDECED"/>
		<stop  offset="0.28" style="stop-color:#F1F0F1"/>
		<stop  offset="0.4" style="stop-color:#E8E7E8"/>
		<stop  offset="0.58" style="stop-color:#D0D1D2"/>
		<stop  offset="0.69" style="stop-color:#C0C1C3"/>
		<stop  offset="0.83" style="stop-color:#DEDDDF"/>
		<stop  offset="0.93" style="stop-color:#F1F0F1"/>
		<stop  offset="1" style="stop-color:#CFCECF"/>
	</linearGradient>
	<path style="fill:url(#SVGID_00000178200685592111100730000007448196266984847023_);" d="M211,351.4c-3.2-1.5-12-6.5-34.9-24.2
		c-35.8-27.7-53.3-53.1-55.7-59.4c-0.7-2.8-2.1-9.8-2.1-11.9V105.3c0-0.4,0-0.8,0-1.1c0.1,0,0.1-0.1,0.2-0.1
		c9.2-2.7,57.5-8.3,92.5-8.3s83.3,5.6,92.5,8.3c0.1,0,0.1,0.1,0.2,0.1c0,0.3,0,0.7,0,1.1v150.6c0,2.1-1.4,9.2-2.1,12
		c-2.4,6.3-19.8,31.6-55.7,59.3C223.1,344.9,214.3,350,211,351.4L211,351.4z"/>
	
		<linearGradient id="SVGID_00000161623217726453751560000007632107559021939330_" gradientUnits="userSpaceOnUse" x1="171.7367" y1="702.1987" x2="295.3167" y2="916.2386" gradientTransform="matrix(1 0 0 -1 0 1024)">
		<stop  offset="0" style="stop-color:#E6E7E8"/>
		<stop  offset="6.000000e-02" style="stop-color:#A5A7AA"/>
		<stop  offset="0.14" style="stop-color:#BABCBE"/>
		<stop  offset="0.28" style="stop-color:#E6E7E8"/>
		<stop  offset="0.38" style="stop-color:#E6E7E8"/>
		<stop  offset="0.54" style="stop-color:#A9ABAD"/>
		<stop  offset="0.58" style="stop-color:#B9BBBC"/>
		<stop  offset="0.64" style="stop-color:#E4E5E6"/>
		<stop  offset="0.64" style="stop-color:#E6E7E8"/>
		<stop  offset="0.84" style="stop-color:#939598"/>
		<stop  offset="1" style="stop-color:#BCBEC0"/>
	</linearGradient>
	<path style="fill:url(#SVGID_00000161623217726453751560000007632107559021939330_);" d="M124.5,255.9c0,1.3,1.1,7.1,1.8,10.1
		c2.6,6.1,19.9,30.4,53.6,56.4c18.1,13.9,26.9,19.7,31.1,22.1c4.2-2.4,13.1-8.2,31.1-22.1c33.8-26.1,51-50.3,53.6-56.3
		c0.7-3,1.8-8.9,1.8-10.1v-11.6H124.5V255.9z"/>
	<rect x="124.5" y="172.4" class="st6" width="173.1" height="71.9"/>
	<path class="st7" d="M211,101.9c-31.3,0-72.2,4.5-86.5,7.1v63.4h173.1v-63.4C283.3,106.4,242.4,101.9,211,101.9L211,101.9z"/>
	<g>
		<path class="st8" d="M165.9,196.4h5.4v8.6c0,4.4-1.9,6.8-5.7,6.8s-5.7-2.5-5.7-6.8v-14.1c0-4.4,1.9-6.8,5.7-6.8s5.7,2.5,5.7,6.8
			v2.6h-3.6v-2.9c0-2-0.8-2.7-2-2.7s-2,0.7-2,2.7v14.7c0,2,0.8,2.6,2,2.6s2-0.7,2-2.6v-5h-1.7V196.4z"/>
		<path class="st8" d="M186,211.5h-3.9l-0.7-4.9h-4.7l-0.7,4.9h-3.5l3.9-27.2h5.6L186,211.5L186,211.5z M177.3,202.9h3.7l-1.8-13.8
			L177.3,202.9z"/>
		<path class="st8" d="M195.8,211.5c0-0.2-0.1-0.3-0.1-0.5c-0.1-0.3-0.2-0.7-0.2-1.5c0-0.3,0-0.8,0-1.4v-4.3c0-2.5-0.7-3.5-2.5-3.5
			h-1.3v11.1h-3.8v-27.2h5.8c4,0,5.7,2.1,5.7,6.2v2.1c0,2.8-0.8,4.6-2.5,5.5c1.9,0.9,2.5,3,2.5,5.8v4.2c0,1.4,0,2.2,0.4,3.3H195.8
			L195.8,211.5z M191.6,188.2v8.3h1.5c1.4,0,2.3-0.7,2.3-2.9V191c0-2-0.6-2.8-1.9-2.8H191.6L191.6,188.2z"/>
		<path class="st8" d="M214.1,211.5h-3.9l-0.7-4.9h-4.7l-0.7,4.9h-3.5l3.9-27.2h5.6L214.1,211.5L214.1,211.5z M205.4,202.9h3.7
			l-1.8-13.8L205.4,202.9z"/>
		<path class="st8" d="M219.3,191.8v19.7h-3.4v-27.2h4.8l3.9,16.3v-16.3h3.4v27.2h-3.9L219.3,191.8z"/>
		<path class="st8" d="M229.6,184.3h11.8v3.9h-4v23.3h-3.8v-23.3h-4L229.6,184.3L229.6,184.3z"/>
		<path class="st8" d="M249.1,178.6l-3.5,4.3H243l2.4-4.3H249.1z M243.1,184.3h3.8v27.2h-3.8V184.3z"/>
		<path class="st8" d="M262.1,211.5h-3.9l-0.7-4.9h-4.7l-0.7,4.9h-3.5l3.9-27.2h5.6L262.1,211.5L262.1,211.5z M253.4,202.9h3.7
			l-1.8-13.8L253.4,202.9z"/>
	</g>
	<g>
		
			<linearGradient id="SVGID_00000112606153259270243850000009019984599467261064_" gradientUnits="userSpaceOnUse" x1="126.64" y1="826.4064" x2="157.8" y2="826.4064" gradientTransform="matrix(1 0 0 -1 0 1024)">
			<stop  offset="0" style="stop-color:#FEE668"/>
			<stop  offset="0.27" style="stop-color:#FED857"/>
			<stop  offset="0.28" style="stop-color:#FFD857"/>
			<stop  offset="0.64" style="stop-color:#C2882B"/>
			<stop  offset="1" style="stop-color:#DDA827"/>
		</linearGradient>
		<polygon style="fill:url(#SVGID_00000112606153259270243850000009019984599467261064_);" points="147,192.5 142.2,182.8 
			137.4,192.5 126.6,194.1 134.4,201.7 132.6,212.4 142.2,207.3 151.9,212.4 150,201.7 157.8,194.1 		"/>
		
			<linearGradient id="SVGID_00000054224051950493181040000009734900918457421498_" gradientUnits="userSpaceOnUse" x1="126.64" y1="826.4064" x2="157.8" y2="826.4064" gradientTransform="matrix(1 0 0 -1 0 1024)">
			<stop  offset="0" style="stop-color:#DDA827"/>
			<stop  offset="0.36" style="stop-color:#C2882B"/>
			<stop  offset="0.72" style="stop-color:#FFD857"/>
			<stop  offset="0.73" style="stop-color:#FED857"/>
			<stop  offset="1" style="stop-color:#FEE668"/>
		</linearGradient>
		<polygon style="fill:url(#SVGID_00000054224051950493181040000009734900918457421498_);" points="147,192.5 142.2,182.8 
			141.7,197.6 126.6,194.1 134.4,201.7 132.6,212.4 141.7,197.6 142.2,207.3 151.9,212.4 141.7,197.6 157.8,194.1 		"/>
	</g>
	<g>
		
			<linearGradient id="SVGID_00000029008715577871202170000003813012602445798551_" gradientUnits="userSpaceOnUse" x1="265.16" y1="826.4064" x2="296.32" y2="826.4064" gradientTransform="matrix(1 0 0 -1 0 1024)">
			<stop  offset="0" style="stop-color:#FEE668"/>
			<stop  offset="0.27" style="stop-color:#FED857"/>
			<stop  offset="0.28" style="stop-color:#FFD857"/>
			<stop  offset="0.64" style="stop-color:#C2882B"/>
			<stop  offset="1" style="stop-color:#DDA827"/>
		</linearGradient>
		<polygon style="fill:url(#SVGID_00000029008715577871202170000003813012602445798551_);" points="285.6,192.5 280.7,182.8 
			275.9,192.5 265.2,194.1 273,201.7 271.1,212.4 280.7,207.3 290.4,212.4 288.5,201.7 296.3,194.1 		"/>
		
			<linearGradient id="SVGID_00000078762352997119516370000000386631514885904049_" gradientUnits="userSpaceOnUse" x1="265.16" y1="826.4064" x2="296.32" y2="826.4064" gradientTransform="matrix(1 0 0 -1 0 1024)">
			<stop  offset="0" style="stop-color:#DDA827"/>
			<stop  offset="0.36" style="stop-color:#C2882B"/>
			<stop  offset="0.72" style="stop-color:#FFD857"/>
			<stop  offset="0.73" style="stop-color:#FED857"/>
			<stop  offset="1" style="stop-color:#FEE668"/>
		</linearGradient>
		<polygon style="fill:url(#SVGID_00000078762352997119516370000000386631514885904049_);" points="285.6,192.5 280.7,182.8 
			280.2,197.6 265.2,194.1 273,201.7 271.1,212.4 280.2,197.6 280.7,207.3 290.4,212.4 280.2,197.6 296.3,194.1 		"/>
	</g>
	<g>
		<g>
			
				<linearGradient id="SVGID_00000178888157910205398420000015886927275064974520_" gradientUnits="userSpaceOnUse" x1="200.54" y1="796.3664" x2="222.86" y2="796.3664" gradientTransform="matrix(1 0 0 -1 0 1024)">
				<stop  offset="0" style="stop-color:#FEE668"/>
				<stop  offset="0.27" style="stop-color:#FED857"/>
				<stop  offset="0.28" style="stop-color:#FFD857"/>
				<stop  offset="0.64" style="stop-color:#C2882B"/>
				<stop  offset="1" style="stop-color:#DDA827"/>
			</linearGradient>
			<polygon style="fill:url(#SVGID_00000178888157910205398420000015886927275064974520_);" points="215.1,224 211.7,217 208.2,224 
				200.5,225.1 206.1,230.6 204.8,238.3 211.7,234.6 218.6,238.3 217.3,230.6 222.9,225.1 			"/>
			
				<linearGradient id="SVGID_00000001657539708048661250000011316810034079888815_" gradientUnits="userSpaceOnUse" x1="200.54" y1="796.3664" x2="222.86" y2="796.3664" gradientTransform="matrix(1 0 0 -1 0 1024)">
				<stop  offset="0" style="stop-color:#DDA827"/>
				<stop  offset="0.36" style="stop-color:#C2882B"/>
				<stop  offset="0.72" style="stop-color:#FFD857"/>
				<stop  offset="0.73" style="stop-color:#FED857"/>
				<stop  offset="1" style="stop-color:#FEE668"/>
			</linearGradient>
			<polygon style="fill:url(#SVGID_00000001657539708048661250000011316810034079888815_);" points="215.1,224 211.7,217 
				211.3,227.6 200.5,225.1 206.1,230.6 204.8,238.3 211.3,227.6 211.7,234.6 218.6,238.3 211.3,227.6 222.9,225.1 			"/>
		</g>
		<g>
			
				<linearGradient id="SVGID_00000015351269399941357370000018350659926978672050_" gradientUnits="userSpaceOnUse" x1="177.7" y1="800.5064" x2="193.85" y2="800.5064" gradientTransform="matrix(1 0 0 -1 0 1024)">
				<stop  offset="0" style="stop-color:#FEE668"/>
				<stop  offset="0.27" style="stop-color:#FED857"/>
				<stop  offset="0.28" style="stop-color:#FFD857"/>
				<stop  offset="0.64" style="stop-color:#C2882B"/>
				<stop  offset="1" style="stop-color:#DDA827"/>
			</linearGradient>
			<polygon style="fill:url(#SVGID_00000015351269399941357370000018350659926978672050_);" points="188.3,220.9 185.8,215.8 
				183.3,220.9 177.7,221.7 181.7,225.6 180.8,231.2 185.8,228.6 190.8,231.2 189.8,225.6 193.9,221.7 			"/>
			
				<linearGradient id="SVGID_00000031192890750139239440000010752918682306069933_" gradientUnits="userSpaceOnUse" x1="177.7" y1="800.5064" x2="193.85" y2="800.5064" gradientTransform="matrix(1 0 0 -1 0 1024)">
				<stop  offset="0" style="stop-color:#DDA827"/>
				<stop  offset="0.36" style="stop-color:#C2882B"/>
				<stop  offset="0.72" style="stop-color:#FFD857"/>
				<stop  offset="0.73" style="stop-color:#FED857"/>
				<stop  offset="1" style="stop-color:#FEE668"/>
			</linearGradient>
			<polygon style="fill:url(#SVGID_00000031192890750139239440000010752918682306069933_);" points="188.3,220.9 185.8,215.8 
				185.5,223.5 177.7,221.7 181.7,225.6 180.8,231.2 185.5,223.5 185.8,228.6 190.8,231.2 185.5,223.5 193.9,221.7 			"/>
		</g>
		<g>
			
				<linearGradient id="SVGID_00000076581907465948255900000002847274711765004200_" gradientUnits="userSpaceOnUse" x1="159.86" y1="803.8764" x2="170.72" y2="803.8764" gradientTransform="matrix(1 0 0 -1 0 1024)">
				<stop  offset="0" style="stop-color:#FEE668"/>
				<stop  offset="0.27" style="stop-color:#FED857"/>
				<stop  offset="0.28" style="stop-color:#FFD857"/>
				<stop  offset="0.64" style="stop-color:#C2882B"/>
				<stop  offset="1" style="stop-color:#DDA827"/>
			</linearGradient>
			<polygon style="fill:url(#SVGID_00000076581907465948255900000002847274711765004200_);" points="167,218.4 165.3,215 
				163.6,218.4 159.9,218.9 162.6,221.6 161.9,225.3 165.3,223.5 168.6,225.3 168,221.6 170.7,218.9 			"/>
			
				<linearGradient id="SVGID_00000050658680856545009320000009269865418727418249_" gradientUnits="userSpaceOnUse" x1="159.86" y1="803.8764" x2="170.72" y2="803.8764" gradientTransform="matrix(1 0 0 -1 0 1024)">
				<stop  offset="0" style="stop-color:#DDA827"/>
				<stop  offset="0.36" style="stop-color:#C2882B"/>
				<stop  offset="0.72" style="stop-color:#FFD857"/>
				<stop  offset="0.73" style="stop-color:#FED857"/>
				<stop  offset="1" style="stop-color:#FEE668"/>
			</linearGradient>
			<polygon style="fill:url(#SVGID_00000050658680856545009320000009269865418727418249_);" points="167,218.4 165.3,215 
				165.1,220.1 159.9,218.9 162.6,221.6 161.9,225.3 165.1,220.1 165.3,223.5 168.6,225.3 165.1,220.1 170.7,218.9 			"/>
		</g>
		<g>
			
				<linearGradient id="SVGID_00000034057367880463115410000016357045386739309744_" gradientUnits="userSpaceOnUse" x1="-1356.01" y1="800.0764" x2="-1339.87" y2="800.0764" gradientTransform="matrix(-1 0 0 -1 -1110.79 1024)">
				<stop  offset="0" style="stop-color:#FEE668"/>
				<stop  offset="0.27" style="stop-color:#FED857"/>
				<stop  offset="0.28" style="stop-color:#FFD857"/>
				<stop  offset="0.64" style="stop-color:#C2882B"/>
				<stop  offset="1" style="stop-color:#DDA827"/>
			</linearGradient>
			<polygon style="fill:url(#SVGID_00000034057367880463115410000016357045386739309744_);" points="234.6,221.3 237.1,216.2 
				239.6,221.3 245.2,222.1 241.2,226.1 242.1,231.6 237.1,229 232.2,231.6 233.1,226.1 229.1,222.1 			"/>
			
				<linearGradient id="SVGID_00000072243248304118286970000015330699798166599328_" gradientUnits="userSpaceOnUse" x1="-1356.01" y1="800.0764" x2="-1339.87" y2="800.0764" gradientTransform="matrix(-1 0 0 -1 -1110.79 1024)">
				<stop  offset="0" style="stop-color:#DDA827"/>
				<stop  offset="0.36" style="stop-color:#C2882B"/>
				<stop  offset="0.72" style="stop-color:#FFD857"/>
				<stop  offset="0.73" style="stop-color:#FED857"/>
				<stop  offset="1" style="stop-color:#FEE668"/>
			</linearGradient>
			<polygon style="fill:url(#SVGID_00000072243248304118286970000015330699798166599328_);" points="234.6,221.3 237.1,216.2 
				237.4,223.9 245.2,222.1 241.2,226.1 242.1,231.6 237.4,223.9 237.1,229 232.2,231.6 237.4,223.9 229.1,222.1 			"/>
		</g>
		<g>
			
				<linearGradient id="SVGID_00000076595276453673786300000011321252652549238917_" gradientUnits="userSpaceOnUse" x1="-1373.8601" y1="803.4464" x2="-1363" y2="803.4464" gradientTransform="matrix(-1 0 0 -1 -1110.79 1024)">
				<stop  offset="0" style="stop-color:#FEE668"/>
				<stop  offset="0.27" style="stop-color:#FED857"/>
				<stop  offset="0.28" style="stop-color:#FFD857"/>
				<stop  offset="0.64" style="stop-color:#C2882B"/>
				<stop  offset="1" style="stop-color:#DDA827"/>
			</linearGradient>
			<polygon style="fill:url(#SVGID_00000076595276453673786300000011321252652549238917_);" points="256,218.8 257.6,215.4 
				259.3,218.8 263.1,219.3 260.4,222 261,225.7 257.6,224 254.3,225.7 254.9,222 252.2,219.3 			"/>
			
				<linearGradient id="SVGID_00000137117431456684790540000003873940702848784268_" gradientUnits="userSpaceOnUse" x1="-1373.8601" y1="803.4464" x2="-1363" y2="803.4464" gradientTransform="matrix(-1 0 0 -1 -1110.79 1024)">
				<stop  offset="0" style="stop-color:#DDA827"/>
				<stop  offset="0.36" style="stop-color:#C2882B"/>
				<stop  offset="0.72" style="stop-color:#FFD857"/>
				<stop  offset="0.73" style="stop-color:#FED857"/>
				<stop  offset="1" style="stop-color:#FEE668"/>
			</linearGradient>
			<polygon style="fill:url(#SVGID_00000137117431456684790540000003873940702848784268_);" points="256,218.8 257.6,215.4 
				257.8,220.6 263.1,219.3 260.4,222 261,225.7 257.8,220.6 257.6,224 254.3,225.7 257.8,220.6 252.2,219.3 			"/>
		</g>
	</g>
	<g>
		<path class="st6" d="M176.7,253.5V277h-5.8v-15.4c-0.9,0.8-1.9,1.4-2.7,1.9c-0.9,0.5-2,1-3.3,1.4v-5.3c1.9-0.7,3.5-1.5,4.6-2.5
			c1.1-1,1.9-2.2,2.5-3.7L176.7,253.5L176.7,253.5z"/>
		<path class="st6" d="M206.2,273.2h-7.2l-1,3.8h-6.5l7.8-23.1h7l7.8,23.1h-6.7L206.2,273.2L206.2,273.2z M204.8,268.2l-2.3-8.3
			l-2.2,8.3H204.8z"/>
		<path class="st6" d="M215.9,253.9h5.9l7.8,12.8v-12.8h6V277h-6l-7.7-12.7V277h-6L215.9,253.9L215.9,253.9z M228.7,248.2h2.2
			c0,0.3,0,0.5,0,0.7c0,1.2-0.3,2.1-0.8,2.7s-1.2,1-2,1c-0.6,0-1.5-0.3-2.7-0.8c-0.7-0.3-1.2-0.5-1.5-0.5s-0.5,0.1-0.6,0.3
			c-0.1,0.2-0.2,0.5-0.2,1h-2.2c0-0.2,0-0.5,0-0.7c0-1.1,0.3-2,0.8-2.7c0.6-0.7,1.2-1,2-1c0.3,0,0.6,0,0.9,0.1s0.8,0.3,1.6,0.7
			s1.4,0.5,1.7,0.5c0.2,0,0.5-0.1,0.6-0.3C228.5,249.1,228.6,248.7,228.7,248.2L228.7,248.2z"/>
		<path class="st6" d="M239.1,265.5c0-3.8,0.9-6.7,2.8-8.8c1.9-2.1,4.5-3.2,7.8-3.2s6.1,1,7.9,3.1c1.9,2.1,2.8,5,2.8,8.7
			c0,2.7-0.4,4.9-1.2,6.6c-0.8,1.7-2,3.1-3.5,4s-3.4,1.4-5.7,1.4s-4.2-0.4-5.8-1.2s-2.8-2.1-3.7-3.9
			C239.6,270.4,239.1,268.2,239.1,265.5L239.1,265.5z M245.5,265.5c0,2.3,0.4,4,1.2,5s1.8,1.5,3.2,1.5s2.4-0.5,3.2-1.5
			c0.8-1,1.1-2.8,1.1-5.4c0-2.2-0.4-3.8-1.2-4.8c-0.8-1-1.9-1.5-3.2-1.5s-2.3,0.5-3.1,1.5S245.5,263.2,245.5,265.5L245.5,265.5z"/>
	</g>
	<g>
		<path class="st6" d="M266.6,285.6c0-1.2,0.9-2.2,2.1-2.2s2.1,1,2.1,2.2s-1,2.2-2.1,2.2S266.6,286.8,266.6,285.6z"/>
		<path class="st6" d="M258.6,285.6c0-1.2,1-2.2,2.1-2.2s2.1,1,2.1,2.2s-1,2.2-2.1,2.2S258.6,286.8,258.6,285.6z"/>
		<path class="st6" d="M250.5,285.6c0-1.2,0.9-2.2,2.1-2.2s2.1,1,2.1,2.2s-0.9,2.2-2.1,2.2S250.5,286.8,250.5,285.6z"/>
		<path class="st6" d="M242.5,285.6c0-1.2,0.9-2.2,2.1-2.2s2.1,1,2.1,2.2s-0.9,2.2-2.1,2.2S242.5,286.8,242.5,285.6z"/>
		<path class="st6" d="M234.5,285.6c0-1.2,0.9-2.2,2.1-2.2s2.1,1,2.1,2.2s-0.9,2.2-2.1,2.2S234.5,286.8,234.5,285.6z"/>
		<path class="st6" d="M226.4,285.6c0-1.2,0.9-2.2,2.1-2.2s2.1,1,2.1,2.2s-0.9,2.2-2.1,2.2S226.4,286.8,226.4,285.6z"/>
		<path class="st6" d="M218.4,285.6c0-1.2,0.9-2.2,2.1-2.2s2.1,1,2.1,2.2s-0.9,2.2-2.1,2.2S218.4,286.8,218.4,285.6z"/>
		<path class="st6" d="M210.4,285.6c0-1.2,0.9-2.2,2.1-2.2s2.1,1,2.1,2.2s-0.9,2.2-2.1,2.2S210.4,286.8,210.4,285.6z"/>
		<path class="st6" d="M202.4,285.6c0-1.2,0.9-2.2,2.1-2.2s2.1,1,2.1,2.2s-0.9,2.2-2.1,2.2S202.4,286.8,202.4,285.6z"/>
		<path class="st6" d="M194.3,285.6c0-1.2,0.9-2.2,2.1-2.2s2.1,1,2.1,2.2s-0.9,2.2-2.1,2.2S194.3,286.8,194.3,285.6z"/>
		<path class="st6" d="M186.3,285.6c0-1.2,0.9-2.2,2.1-2.2s2.1,1,2.1,2.2s-0.9,2.2-2.1,2.2S186.3,286.8,186.3,285.6z"/>
		<path class="st6" d="M178.3,285.6c0-1.2,0.9-2.2,2.1-2.2s2.1,1,2.1,2.2s-0.9,2.2-2.1,2.2S178.3,286.8,178.3,285.6z"/>
		<path class="st6" d="M170.2,285.6c0-1.2,0.9-2.2,2.1-2.2s2.1,1,2.1,2.2s-0.9,2.2-2.1,2.2S170.2,286.8,170.2,285.6z"/>
		<path class="st6" d="M162.2,285.6c0-1.2,0.9-2.2,2.1-2.2s2.1,1,2.1,2.2s-0.9,2.2-2.1,2.2S162.2,286.8,162.2,285.6z"/>
		<path class="st6" d="M154.2,285.6c0-1.2,0.9-2.2,2.1-2.2s2.1,1,2.1,2.2s-0.9,2.2-2.1,2.2S154.2,286.8,154.2,285.6z"/>
	</g>
	<g>
		<polygon class="st6" points="215.4,308.1 212.9,303 210.4,308.1 204.8,308.9 208.8,312.9 207.9,318.5 212.9,315.9 218,318.5 
			217,312.9 221.1,308.9 		"/>
		<polygon class="st6" points="198.2,303.5 197,300.9 195.7,303.5 192.9,303.9 194.9,305.9 194.5,308.7 197,307.3 199.5,308.7 
			199,305.9 201.1,303.9 		"/>
		<polygon class="st6" points="232.8,303.3 230,302.9 228.7,300.3 227.4,302.9 224.6,303.3 226.6,305.3 226.2,308.1 228.7,306.7 
			231.2,308.1 230.7,305.3 		"/>
		<polygon class="st6" points="186.9,302.6 185.6,300 184.4,302.6 181.5,303 183.6,305 183.1,307.9 185.6,306.5 188.2,307.9 
			187.7,305 189.8,303 		"/>
		<polygon class="st6" points="244,302.4 241.1,302 239.9,299.4 238.6,302 235.7,302.4 237.8,304.4 237.3,307.2 239.9,305.9 
			242.4,307.2 241.9,304.4 		"/>
	</g>
	<path class="st8" d="M192.8,148.2c0,0-4.9,12.5-22.1,13.2C170.7,161.3,183.2,158,192.8,148.2"/>
	<rect x="156.5" y="133.4" class="st23" width="3.7" height="19.6"/>
	<path class="st23" d="M179.6,153v-12.5c0-2.1-0.1-4.4-3.4-4.4c-1.9,0-4.7,1.1-6.4,1.8V153h-3.7v-19.6h3.4v1.8
		c3.9-1.7,5.2-2.2,7.9-2.2s5.9,1.7,5.9,6v14L179.6,153L179.6,153z"/>
	<path class="st23" d="M203.8,143c0,4.7-2,7.7-5.9,7.7s-5.9-3-5.9-7.7s2.1-7.4,5.9-7.4S203.8,138.4,203.8,143 M207.8,143
		c0-6.3-3.7-10.2-9.9-10.2s-9.9,3.9-9.9,10.2s3.6,10.4,9.9,10.4C203.7,153.5,207.8,149.1,207.8,143"/>
	<path class="st23" d="M224.6,139.7c0,3-1.6,4.3-4.5,4.3c-2.6,0-4.3-1.3-4.3-4.3c0-2.5,1.6-4,4.3-4S224.6,137.1,224.6,139.7
		 M231.1,135.8v-3.1l-8.3,0.5c-0.7-0.1-1.6-0.2-2.7-0.2c-4.7,0-8.3,2.3-8.3,6.9c0,3.3,1.8,4.8,3.2,5.5c-1.8,1.3-2.8,2.5-2.8,4.4
		c0,3.5,3.8,3.8,7.7,3.8h2.7c1.3,0.1,4.2,0,4.2,1.9c0,1.7-2.9,2.9-6.9,2.9c-2.1,0-4.8-0.4-6.9-0.8v2.8c2.7,0.5,5.2,0.7,7.6,0.7
		c6.1,0,10.3-1.9,10.3-6.2c0-6.1-9-4.3-12.8-4.7c-1.4-0.2-1.9-0.5-1.9-1.2c0-1,1.2-2,2.1-2.5c0.7,0.1,1.4,0.2,2.1,0.2
		c6.8,0,8.4-3.9,8.4-6.9c0-1.9-0.7-3.3-1.7-4.3C228.2,135.7,230.2,135.8,231.1,135.8"/>
	<path class="st23" d="M247.7,141.8h-10.5c0.1-3.8,1.9-6.1,5.2-6.1C246.3,135.6,247.6,138.2,247.7,141.8 M251.9,144.4v-1
		c0-6.3-2.7-10.5-9.5-10.5c-5.1,0-9.3,2.9-9.3,9.8s3.8,10.7,10.7,10.7c2.2,0,4.2-0.1,6.6-0.7V150c-1.9,0.3-3.6,0.5-5.3,0.5
		c-2.8,0-7.2-0.2-7.8-6.2C237.2,144.4,251.9,144.4,251.9,144.4L251.9,144.4z"/>
	<path class="st23" d="M269.7,153v-12.5c0-2.1-0.1-4.4-3.4-4.4c-1.9,0-4.7,1.1-6.4,1.8V153h-3.7v-19.6h3.4v1.8
		c3.9-1.7,5.2-2.2,7.9-2.2s5.9,1.7,5.9,6v14L269.7,153L269.7,153z"/>
	<path class="st8" d="M139.1,119.8c0,0,86-8,58.2,24C197.3,143.8,218.4,102.5,139.1,119.8"/>
	<path class="st23" d="M276.6,134.3c0,0.7-0.6,1.3-1.4,1.3s-1.4-0.6-1.4-1.3s0.6-1.3,1.4-1.3S276.6,133.5,276.6,134.3z M274.2,134.3
		c0,0.6,0.4,1,1,1c0.5,0,1-0.4,1-1s-0.4-1-1-1S274.2,133.7,274.2,134.3L274.2,134.3z M275.1,135h-0.3v-1.3c0.1,0,0.3-0.1,0.5-0.1
		c0.3,0,0.4,0.1,0.4,0.1c0.1,0.1,0.1,0.2,0.1,0.3c0,0.2-0.1,0.3-0.3,0.3l0,0c0.1,0.1,0.2,0.2,0.2,0.3c0.1,0.2,0.1,0.3,0.1,0.3h-0.3
		c-0.1-0.1-0.1-0.2-0.1-0.3c0-0.1-0.1-0.2-0.3-0.2H275L275.1,135L275.1,135L275.1,135z M275.1,134.2h0.2c0.2,0,0.3-0.1,0.3-0.2
		s-0.1-0.2-0.3-0.2h-0.2V134.2L275.1,134.2L275.1,134.2z"/>
</g>
</svg>
