<?xml version="1.0" encoding="UTF-8"?>
<svg id="Layer_1" data-name="Layer 1" xmlns="http://www.w3.org/2000/svg" viewBox="0 0 300 112.7">
  <defs>
    <style>
      .cls-1 {
        fill: #243e8c;
      }

      .cls-1, .cls-2 {
        stroke-width: 0px;
      }

      .cls-2 {
        fill: #aabcd6;
      }
    </style>
  </defs>
  <g>
    <path class="cls-2" d="m91.25,59.8s-12.2,30.98-54.56,32.63c0-.14,30.98-8.23,54.56-32.63"/>
    <rect class="cls-1" x="1.59" y="23.34" width="9.19" height="48.53"/>
    <path class="cls-1" d="m58.63,71.73v-30.85c0-5.21-.14-10.83-8.36-10.83-4.66,0-11.65,2.74-15.77,4.39v37.29h-9.19V23.2h8.5v4.39c9.6-4.25,12.89-5.35,19.6-5.35s14.67,4.11,14.67,14.81v34.69h-9.46Z"/>
    <path class="cls-1" d="m118.54,47.19c0,11.52-4.94,18.92-14.53,18.92s-14.67-7.4-14.67-18.92,5.07-18.23,14.67-18.23,14.53,6.85,14.53,18.23m9.87,0c0-15.49-9.05-25.09-24.54-25.09s-24.54,9.6-24.54,25.09,8.91,25.77,24.54,25.77c14.26,0,24.54-10.69,24.54-25.77"/>
    <path class="cls-1" d="m169.81,38.83c0,7.54-3.84,10.69-11.1,10.69-6.31,0-10.69-3.29-10.69-10.69,0-6.17,3.84-10.01,10.69-10.01s11.1,3.56,11.1,10.01m16.04-9.6v-7.68l-20.56,1.23c-1.78-.27-3.84-.55-6.72-.55-11.65,0-20.43,5.62-20.43,17.14,0,8.09,4.52,11.79,7.81,13.71-4.52,3.29-6.99,6.31-6.99,10.97,0,8.64,9.46,9.46,19.06,9.46h6.58c3.29.14,10.42,0,10.42,4.66,0,4.11-7.27,7.27-17.14,7.27-5.07,0-11.79-.96-17-1.92v6.99c6.72,1.37,12.75,1.65,18.65,1.65,14.94,0,25.36-4.8,25.36-15.35,0-15.08-22.21-10.69-31.67-11.65-3.56-.41-4.8-1.37-4.8-2.88,0-2.6,3.02-4.94,5.07-6.31,1.65.27,3.43.41,5.07.41,16.86,0,20.84-9.73,20.84-17.14,0-4.66-1.65-8.23-4.11-10.69,3.43.41,8.5.82,10.56.69"/>
    <path class="cls-1" d="m226.98,44.04h-25.91c.27-9.46,4.66-15.08,12.89-15.08,9.6-.14,12.75,6.31,13.02,15.08m10.42,6.58v-2.47c0-15.63-6.72-25.91-23.44-25.91-12.48,0-23.03,7.27-23.03,24.27s9.46,26.32,26.46,26.32c5.35,0,10.42-.27,16.18-1.78v-6.58c-4.66.82-8.77,1.37-13.16,1.37-6.99,0-17.82-.41-19.33-15.35-.14.14,36.33.14,36.33.14Z"/>
    <path class="cls-1" d="m281.41,71.73v-30.85c0-5.21-.14-10.83-8.36-10.83-4.66,0-11.65,2.74-15.77,4.39v37.29h-9.19V23.2h8.5v4.39c9.6-4.25,12.89-5.35,19.6-5.35s14.53,4.11,14.53,14.81v34.69h-9.32Z"/>
    <path class="cls-1" d="m298.41,25.53c0,1.78-1.51,3.29-3.43,3.29s-3.43-1.51-3.43-3.29,1.51-3.29,3.43-3.29,3.43,1.37,3.43,3.29Zm-5.9,0c0,1.51,1.1,2.6,2.6,2.6,1.37,0,2.47-1.1,2.47-2.6s-1.1-2.6-2.6-2.6-2.47,1.1-2.47,2.6h0Zm2.06,1.65h-.69v-3.29c.27,0,.69-.14,1.23-.14.69,0,.96.14,1.1.27.14.14.27.41.27.69,0,.41-.27.69-.69.82h0c.27.14.55.41.55.82.14.55.14.69.27.82h-.82c-.14-.14-.14-.41-.27-.82,0-.27-.27-.55-.69-.55h-.41l.14,1.37h0Zm0-1.78h.41c.41,0,.69-.14.69-.41s-.27-.55-.69-.55h-.41v.96h0Z"/>
    <g>
      <path class="cls-2" d="m243.08,89.96c0,2.87-.54,5.31-1.62,7.32s-2.55,3.55-4.42,4.6c-1.86,1.06-3.95,1.59-6.27,1.59s-4.43-.53-6.29-1.59c-1.86-1.06-3.32-2.6-4.4-4.61-1.08-2.01-1.62-4.45-1.62-7.3s.54-5.31,1.62-7.32c1.08-2.01,2.55-3.55,4.4-4.6,1.86-1.06,3.95-1.59,6.29-1.59s4.41.53,6.27,1.59c1.86,1.06,3.33,2.59,4.42,4.6s1.62,4.45,1.62,7.32Zm-5.64,0c0-1.86-.28-3.42-.83-4.7-.55-1.27-1.33-2.24-2.33-2.9s-2.17-.99-3.52-.99-2.52.33-3.52.99c-1,.66-1.78,1.63-2.33,2.9-.55,1.28-.83,2.84-.83,4.7s.28,3.42.83,4.7c.55,1.27,1.33,2.24,2.33,2.9,1,.66,2.17.99,3.52.99s2.52-.33,3.52-.99,1.78-1.63,2.33-2.9c.55-1.28.83-2.84.83-4.7Z"/>
      <path class="cls-2" d="m269.18,76.82v26.29h-4.8l-11.44-16.55h-.19v16.55h-5.56v-26.29h4.88l11.35,16.53h.23v-16.53h5.53Z"/>
      <path class="cls-2" d="m273.76,103.11v-26.29h17.72v4.58h-12.16v6.26h11.25v4.58h-11.25v6.28h12.21v4.58h-17.77Z"/>
    </g>
    <g>
      <path class="cls-1" d="m8.21,12.19h-.86c-.05-.25-.14-.47-.27-.65-.13-.19-.28-.35-.46-.48s-.38-.23-.6-.29c-.22-.06-.45-.1-.68-.1-.43,0-.82.11-1.17.33-.35.22-.63.54-.83.97s-.31.95-.31,1.56.1,1.14.31,1.56c.21.43.48.75.83.97.35.22.74.33,1.17.33.24,0,.46-.03.68-.1.22-.07.42-.16.6-.29s.33-.29.46-.48.22-.41.27-.65h.86c-.07.36-.18.69-.36.98-.17.29-.39.53-.64.73s-.54.35-.86.46c-.32.1-.66.16-1.02.16-.61,0-1.15-.15-1.62-.45-.47-.3-.85-.72-1.12-1.27-.27-.55-.41-1.2-.41-1.95s.14-1.4.41-1.95c.27-.55.64-.97,1.12-1.27.47-.3,1.02-.45,1.62-.45.36,0,.7.05,1.02.16s.6.26.86.46.47.44.64.73c.17.29.29.61.36.98Z"/>
      <path class="cls-1" d="m11.67,17.21c-.48,0-.91-.11-1.27-.35-.36-.23-.65-.55-.85-.96-.2-.41-.31-.9-.31-1.45s.1-1.04.31-1.46c.2-.42.49-.74.85-.97s.79-.35,1.27-.35.91.12,1.27.35.65.55.85.97c.2.42.3.9.3,1.46s-.1,1.04-.3,1.45c-.2.41-.49.73-.85.96-.36.23-.79.35-1.27.35Zm0-.74c.37,0,.67-.09.91-.28.24-.19.41-.44.53-.74.11-.31.17-.64.17-1s-.06-.69-.17-1c-.11-.31-.29-.56-.53-.75s-.54-.29-.91-.29-.67.1-.91.29-.41.44-.53.75-.17.64-.17,1,.06.69.17,1,.29.55.53.74c.24.19.54.28.91.28Z"/>
      <path class="cls-1" d="m16.17,13.88v3.22h-.82v-5.35h.8v.84h.07c.13-.27.32-.49.57-.66.26-.17.59-.25.99-.25.36,0,.68.07.95.22.27.15.48.37.63.67.15.3.23.68.23,1.13v3.4h-.82v-3.35c0-.42-.11-.75-.33-.98-.22-.24-.52-.35-.9-.35-.26,0-.5.06-.7.17s-.37.28-.49.5c-.12.22-.18.48-.18.79Z"/>
      <path class="cls-1" d="m23.27,17.21c-.5,0-.93-.12-1.3-.35-.36-.24-.64-.56-.84-.98s-.29-.89-.29-1.43.1-1.02.3-1.44c.2-.42.48-.74.84-.98.36-.24.78-.35,1.27-.35.38,0,.72.07,1.02.21s.55.33.74.59c.19.25.31.54.36.88h-.82c-.06-.24-.2-.46-.42-.65s-.5-.28-.87-.28c-.32,0-.6.08-.84.25s-.43.4-.56.7c-.13.3-.2.65-.2,1.06s.07.77.2,1.08c.13.31.32.54.56.71s.52.25.85.25c.21,0,.41-.04.58-.11s.32-.18.44-.32c.12-.14.21-.31.26-.5h.82c-.05.32-.16.6-.34.85-.18.25-.42.45-.72.6-.3.15-.65.22-1.04.22Z"/>
      <path class="cls-1" d="m28.81,17.21c-.52,0-.96-.11-1.33-.34-.37-.23-.66-.55-.86-.96-.2-.41-.3-.89-.3-1.44s.1-1.03.3-1.45c.2-.42.48-.75.84-.98.36-.24.78-.35,1.27-.35.28,0,.55.05.83.14.27.09.52.24.74.45.22.21.4.48.53.82.13.34.2.76.2,1.26v.35h-4.13v-.71h3.29c0-.3-.06-.57-.18-.81s-.29-.42-.51-.56c-.22-.14-.48-.21-.78-.21-.33,0-.61.08-.85.24-.24.16-.42.37-.55.63s-.19.53-.19.83v.47c0,.4.07.75.21,1.03.14.28.34.49.59.64.25.14.54.22.87.22.22,0,.41-.03.59-.09s.33-.15.45-.28c.13-.12.23-.28.3-.47l.8.22c-.08.27-.22.51-.42.71-.2.2-.44.36-.73.47-.29.11-.62.17-.98.17Z"/>
      <path class="cls-1" d="m33.11,13.88v3.22h-.82v-5.35h.8v.84h.07c.13-.27.32-.49.57-.66.26-.17.59-.25.99-.25.36,0,.68.07.95.22.27.15.48.37.63.67.15.3.23.68.23,1.13v3.4h-.82v-3.35c0-.42-.11-.75-.33-.98-.22-.24-.52-.35-.9-.35-.26,0-.5.06-.7.17s-.37.28-.49.5c-.12.22-.18.48-.18.79Z"/>
      <path class="cls-1" d="m40.36,11.75v.7h-2.77v-.7h2.77Zm-1.97-1.28h.82v5.1c0,.23.03.41.1.52.07.12.16.19.27.23.11.04.22.06.34.06.09,0,.17,0,.22-.02.06-.01.1-.02.14-.03l.17.74c-.06.02-.13.04-.23.06-.1.02-.23.03-.38.03-.23,0-.46-.05-.68-.15-.22-.1-.41-.25-.55-.46-.14-.2-.22-.46-.22-.77v-5.32Z"/>
      <path class="cls-1" d="m41.6,17.1v-5.35h.8v.81h.06c.1-.26.27-.48.53-.64.26-.17.54-.25.86-.25.06,0,.14,0,.23,0,.09,0,.16,0,.21.01v.84s-.09-.02-.19-.03-.2-.02-.31-.02c-.26,0-.49.05-.7.16-.2.11-.36.26-.48.45s-.18.4-.18.65v3.39h-.82Z"/>
      <path class="cls-1" d="m46.82,17.22c-.34,0-.65-.06-.92-.19s-.5-.32-.66-.56c-.16-.25-.24-.54-.24-.89,0-.31.06-.56.18-.75.12-.19.28-.34.48-.45.2-.11.43-.19.67-.25.24-.05.49-.1.74-.13.32-.04.59-.07.79-.1.2-.02.35-.06.45-.11.09-.05.14-.15.14-.28v-.03c0-.34-.09-.61-.28-.8-.19-.19-.47-.29-.85-.29s-.7.09-.92.26c-.22.17-.38.36-.47.55l-.78-.28c.14-.33.33-.58.56-.76.23-.18.49-.31.77-.38s.55-.11.82-.11c.17,0,.37.02.59.06.22.04.44.12.65.25s.39.31.52.57c.14.25.21.59.21,1.02v3.53h-.82v-.72h-.04c-.06.12-.15.24-.28.37-.13.13-.3.24-.52.34s-.48.14-.79.14Zm.13-.74c.33,0,.6-.06.82-.19.22-.13.39-.29.51-.5.12-.2.17-.41.17-.64v-.75s-.11.08-.23.11c-.12.03-.25.06-.4.09s-.3.05-.44.06c-.14.02-.26.03-.35.04-.21.03-.41.07-.6.13s-.33.15-.45.28c-.11.12-.17.29-.17.5,0,.29.11.5.32.65.21.15.48.22.81.22Z"/>
      <path class="cls-1" d="m52.8,17.21c-.45,0-.84-.11-1.18-.34-.34-.23-.61-.55-.8-.96-.19-.41-.29-.91-.29-1.47s.1-1.05.29-1.46c.19-.41.46-.73.8-.96s.74-.34,1.19-.34c.35,0,.62.06.83.17.2.11.36.24.47.39s.19.26.25.36h.07v-2.63h.82v7.14h-.8v-.82h-.1c-.06.1-.15.22-.26.37-.11.15-.27.28-.48.39-.21.11-.48.17-.83.17Zm.11-.74c.33,0,.61-.09.84-.26s.4-.41.52-.72.18-.66.18-1.07-.06-.75-.17-1.05c-.12-.3-.29-.54-.52-.7-.23-.17-.51-.25-.84-.25s-.64.09-.87.27c-.23.18-.4.42-.52.72-.11.3-.17.64-.17,1.02s.06.73.18,1.04c.12.31.29.56.52.74.23.18.52.27.86.27Z"/>
      <path class="cls-1" d="m59.05,17.21c-.48,0-.91-.11-1.27-.35-.36-.23-.65-.55-.85-.96-.2-.41-.31-.9-.31-1.45s.1-1.04.31-1.46c.2-.42.49-.74.85-.97s.79-.35,1.27-.35.91.12,1.27.35.65.55.85.97c.2.42.3.9.3,1.46s-.1,1.04-.3,1.45c-.2.41-.49.73-.85.96-.36.23-.79.35-1.27.35Zm0-.74c.37,0,.67-.09.91-.28.24-.19.41-.44.53-.74.11-.31.17-.64.17-1s-.06-.69-.17-1c-.11-.31-.29-.56-.53-.75s-.54-.29-.91-.29-.67.1-.91.29-.41.44-.53.75-.17.64-.17,1,.06.69.17,1,.29.55.53.74c.24.19.54.28.91.28Z"/>
      <path class="cls-1" d="m62.73,17.1v-5.35h.8v.81h.06c.1-.26.27-.48.53-.64.26-.17.54-.25.86-.25.06,0,.14,0,.23,0,.09,0,.16,0,.21.01v.84s-.09-.02-.19-.03-.2-.02-.31-.02c-.26,0-.49.05-.7.16-.2.11-.36.26-.48.45s-.18.4-.18.65v3.39h-.82Z"/>
      <path class="cls-1" d="m69.25,17.1v-7.14h2.41c.56,0,1.02.1,1.37.3.36.2.62.47.79.81.17.34.26.72.26,1.14s-.09.8-.26,1.15-.43.62-.79.82c-.36.2-.81.31-1.37.31h-1.73v-.77h1.7c.38,0,.69-.07.92-.2.23-.13.4-.31.51-.54.11-.23.16-.48.16-.77s-.05-.54-.16-.77c-.11-.23-.28-.4-.51-.53-.23-.13-.55-.19-.93-.19h-1.52v6.37h-.86Z"/>
      <path class="cls-1" d="m77.49,17.21c-.48,0-.91-.11-1.27-.35-.36-.23-.65-.55-.85-.96-.2-.41-.31-.9-.31-1.45s.1-1.04.31-1.46c.2-.42.49-.74.85-.97s.79-.35,1.27-.35.91.12,1.27.35.65.55.85.97c.2.42.3.9.3,1.46s-.1,1.04-.3,1.45c-.2.41-.49.73-.85.96-.36.23-.79.35-1.27.35Zm0-.74c.37,0,.67-.09.91-.28.24-.19.41-.44.53-.74.11-.31.17-.64.17-1s-.06-.69-.17-1c-.11-.31-.29-.56-.53-.75s-.54-.29-.91-.29-.67.1-.91.29-.41.44-.53.75-.17.64-.17,1,.06.69.17,1,.29.55.53.74c.24.19.54.28.91.28Z"/>
      <path class="cls-1" d="m81.17,17.1v-5.35h.8v.81h.06c.1-.26.27-.48.53-.64.26-.17.54-.25.86-.25.06,0,.14,0,.23,0,.09,0,.16,0,.21.01v.84s-.09-.02-.19-.03-.2-.02-.31-.02c-.26,0-.49.05-.7.16-.2.11-.36.26-.48.45s-.18.4-.18.65v3.39h-.82Z"/>
      <path class="cls-1" d="m87.48,11.75v.7h-2.77v-.7h2.77Zm-1.97-1.28h.82v5.1c0,.23.03.41.1.52.07.12.16.19.27.23.11.04.22.06.34.06.09,0,.17,0,.22-.02.06-.01.1-.02.14-.03l.17.74c-.06.02-.13.04-.23.06-.1.02-.23.03-.38.03-.23,0-.46-.05-.68-.15-.22-.1-.41-.25-.55-.46-.14-.2-.22-.46-.22-.77v-5.32Z"/>
      <path class="cls-1" d="m90.3,17.22c-.34,0-.65-.06-.92-.19s-.5-.32-.66-.56c-.16-.25-.24-.54-.24-.89,0-.31.06-.56.18-.75.12-.19.28-.34.48-.45.2-.11.43-.19.67-.25.24-.05.49-.1.74-.13.32-.04.59-.07.79-.1.2-.02.35-.06.45-.11.09-.05.14-.15.14-.28v-.03c0-.34-.09-.61-.28-.8-.19-.19-.47-.29-.85-.29s-.7.09-.92.26c-.22.17-.38.36-.47.55l-.78-.28c.14-.33.33-.58.56-.76.23-.18.49-.31.77-.38s.55-.11.82-.11c.17,0,.37.02.59.06.22.04.44.12.65.25s.39.31.52.57c.14.25.21.59.21,1.02v3.53h-.82v-.72h-.04c-.06.12-.15.24-.28.37-.13.13-.3.24-.52.34s-.48.14-.79.14Zm.13-.74c.33,0,.6-.06.82-.19.22-.13.39-.29.51-.5.12-.2.17-.41.17-.64v-.75s-.11.08-.23.11c-.12.03-.25.06-.4.09s-.3.05-.44.06c-.14.02-.26.03-.35.04-.21.03-.41.07-.6.13s-.33.15-.45.28c-.11.12-.17.29-.17.5,0,.29.11.5.32.65.21.15.48.22.81.22Zm.03-5.46l.85-1.62h.96l-1.09,1.62h-.72Z"/>
      <path class="cls-1" d="m96.58,11.75v.7h-2.77v-.7h2.77Zm-1.97-1.28h.82v5.1c0,.23.03.41.1.52.07.12.16.19.27.23.11.04.22.06.34.06.09,0,.17,0,.22-.02.06-.01.1-.02.14-.03l.17.74c-.06.02-.13.04-.23.06-.1.02-.23.03-.38.03-.23,0-.46-.05-.68-.15-.22-.1-.41-.25-.55-.46-.14-.2-.22-.46-.22-.77v-5.32Z"/>
      <path class="cls-1" d="m98.24,10.85c-.16,0-.3-.06-.41-.16-.11-.11-.17-.24-.17-.39s.06-.28.17-.39c.12-.11.25-.16.41-.16s.3.05.41.16c.12.11.17.24.17.39s-.06.28-.17.39c-.11.11-.25.16-.41.16Zm-.42,6.24v-5.35h.82v5.35h-.82Z"/>
      <path class="cls-1" d="m100.97,9.96v7.14h-.82v-7.14h.82Z"/>
    </g>
  </g>
  <path class="cls-2" d="m103.29,9.47h0c12.55,20.32-.93,46.72-.93,46.72,19.88-22.9,16.2-37.52.93-46.72Z"/>
</svg>